G04 ================== begin FILE IDENTIFICATION RECORD ==================*
G04 Layout Name:  C:/USERS/USER/DESKTOP/신성욱 교수님/EXAM/0801_1/allegro/OSC.brd*
G04 Film Name:    BOTTOM*
G04 File Format:  Gerber RS274X*
G04 File Origin:  Cadence Allegro 17.2-P019*
G04 Origin Date:  Thu Aug 01 11:16:18 2019*
G04 *
G04 Layer:  ETCH/BOTTOM*
G04 Layer:  PIN/BOTTOM*
G04 Layer:  VIA CLASS/BOTTOM*
G04 *
G04 Offset:    (0.000 0.000)*
G04 Mirror:    No*
G04 Mode:      Positive*
G04 Rotation:  0*
G04 FullContactRelief:  No*
G04 UndefLineWidth:     0.000*
G04 ================== end FILE IDENTIFICATION RECORD ====================*
%FSLAX25Y25*MOMM*%
%IR0*IPPOS*OFA0.00000B0.00000*MIA0B0*SFA1.00000B1.00000*%
%ADD11C,1.524*%
%ADD12C,1.651*%
%ADD15C,1.905*%
%ADD13R,1.524X1.524*%
%ADD14R,1.905X1.905*%
%ADD10C,.635*%
%ADD16C,1.*%
%ADD17C,.5*%
%ADD20C,2.402*%
%ADD19C,2.274*%
%ADD21C,2.528*%
%ADD18C,2.656*%
G75*
%LPD*%
G75*
G36*
G01X754200Y500000D02*
Y754200D01*
X500000D01*
Y3226800D01*
X666900D01*
X1469400Y2424200D01*
X1469000Y2421600D01*
G03X1646800Y2524300I131029J-21587D01*
G02X1646400Y2543200I3587J9530D01*
G03X1479900Y2651300I-46412J110789D01*
G02X1462500Y2643800I-10194J-283D01*
G01X729100Y3377200D01*
X587800D01*
G02X581300Y3395200I53J10193D01*
G03X601600Y3416800I-81325J96770D01*
G01X1810900D01*
X1829800Y3397900D01*
Y2431900D01*
X1923900Y2337800D01*
X2049500D01*
G03X2205800Y2537300I109471J75211D01*
G02X2205400Y2556200I3587J9530D01*
G03X2112600I-46400J110800D01*
G02X2112200Y2537300I-3987J-9370D01*
G03X2049500Y2488200I46772J-124310D01*
G01X1986100D01*
X1980200Y2494100D01*
Y3460100D01*
X1873100Y3567200D01*
X601600D01*
G03X500000Y3618400I-101600J-75206D01*
G01Y3632300D01*
G03Y3859700I0J113700D01*
G01Y3873600D01*
G03Y4126400I0J126400D01*
G01Y6245800D01*
X754200D01*
Y6500000D01*
X9245800D01*
Y6245800D01*
X9500000D01*
Y3867700D01*
G03Y3640300I0J-113700D01*
G01Y3626400D01*
G03Y3373600I0J-126400D01*
G01Y754200D01*
X9245800D01*
Y500000D01*
X754200D01*
G37*
%LPC*%
G75*
G36*
G01X1046800Y2524300D02*
G02X953200I-46800J-124300D01*
G03X953600Y2543200I-3587J9530D01*
G02X1046400I46400J110800D01*
G03X1046800Y2524300I3987J-9370D01*
G37*
G36*
G01X2846400Y2510800D02*
G02X2753600I-46400J-110800D01*
G03X2753200Y2529700I-3987J9370D01*
G02X2788900Y2786300I46809J124271D01*
G01X2790800Y2786500D01*
X2961800Y2957500D01*
Y3222900D01*
G02X2944500Y3253500I100312J76903D01*
G03X2925500I-9500J-3796D01*
G02X2690500I-117500J46500D01*
G03X2671500I-9500J-3796D01*
G02X2445400Y3235400I-117499J46528D01*
G03X2426400Y3230200I-8790J-5194D01*
G01Y3223800D01*
G02X2376200Y3173600I-50200J0D01*
G01X2223800D01*
G02X2173600Y3223800I0J50200D01*
G01Y3376200D01*
G02X2223800Y3426400I50200J0D01*
G01X2296600D01*
G03X2303800Y3443800I12J10185D01*
G01X2020300Y3727400D01*
Y4158600D01*
X2524800Y4663100D01*
Y4790500D01*
G02X2675200I75200J109500D01*
G01Y4600900D01*
X2279500Y4205200D01*
G03X2287700Y4187800I7196J-7241D01*
G02X2417500Y4108500I12273J-125792D01*
G03X2436500I9500J3796D01*
G02X2671500I117500J-46500D01*
G03X2690500I9500J3796D01*
G02X2824200Y4187400I117552J-46467D01*
G01X2826700Y4187000D01*
X3124800Y4485100D01*
Y4790500D01*
G02X3275200I75200J109500D01*
G01Y4422900D01*
X3058100Y4205800D01*
G03X3065100Y4188400I7212J-7206D01*
G02X2944500Y4015500I-3077J-126364D01*
G03X2925500I-9500J-3796D01*
G02X2690500I-117500J46500D01*
G03X2671500I-9500J-3796D01*
G02X2436500I-117500J46500D01*
G03X2417500I-9500J-3796D01*
G02X2189800Y4000100I-117517J46514D01*
G03X2170700Y3995100I-8901J-4978D01*
G01Y3789600D01*
X2535300Y3425000D01*
X2537800Y3425400D01*
G02X2671500Y3346500I16148J-125367D01*
G03X2690500I9500J3796D01*
G02X2925500I117500J-46500D01*
G03X2944500I9500J3796D01*
G02X3162200Y3222900I117530J-46512D01*
G01Y2874500D01*
X2932500Y2644800D01*
X2932300Y2642900D01*
G02X2846800Y2529700I-132333J11062D01*
G03X2846400Y2510800I3587J-9530D01*
G37*
G36*
G01X4004200Y2745500D02*
X4006400D01*
G02X3882300Y2526700I1594J-145498D01*
G03X3865000Y2527100I-8775J-5189D01*
G02X3654400Y2512200I-110985J72909D01*
G01X3652900Y2513900D01*
X3645400D01*
Y2504800D01*
G02X3595200Y2454600I-50150J-50D01*
G01X3404800D01*
G02X3354600Y2504800I-50J50150D01*
G01Y2695200D01*
G02X3404800Y2745400I50150J50D01*
G01X3595200D01*
G02X3645400Y2695200I50J-50150D01*
G01Y2686100D01*
X3652900D01*
X3654400Y2687800D01*
G02X3717300Y2727600I99603J-87809D01*
G03X3721700Y2744600I-2839J9804D01*
G01X3455800Y3010500D01*
Y3605500D01*
X3772900Y3922600D01*
G03X3768200Y3939700I-7229J7209D01*
G02X3917500Y4108500I31782J122316D01*
G03X3936500I9500J3796D01*
G02X4050900Y4188400I117553J-46462D01*
G03X4057900Y4205800I-212J10194D01*
G01X3861800Y4401900D01*
Y4780000D01*
G02X3819100Y4828500I75322J109361D01*
G03X3800900I-9100J-4720D01*
G02X3607800Y4999000I-117943J61021D01*
G01Y5810900D01*
X3577900Y5840800D01*
X3309500D01*
G02Y5991200I-109500J75200D01*
G01X3640100D01*
X3758200Y5873100D01*
Y4999000D01*
G02X3800900Y4950500I-75322J-109361D01*
G03X3819100I9100J4720D01*
G02X3945100Y5022100I117982J-60955D01*
G03X3955900Y5032200I619J10162D01*
G01Y5649800D01*
X4086200Y5780100D01*
X4320600D01*
G03X4325400Y5799300I22J10195D01*
G02X4437600I56100J106200D01*
G03X4442400Y5780100I4778J-9005D01*
G01X4657800D01*
X4758900Y5881300D01*
X4758500Y5883800D01*
G02X4867800Y5774500I131000J21700D01*
G01X4865300Y5774900D01*
X4720000Y5629700D01*
X4148400D01*
X4106300Y5587600D01*
Y4952500D01*
X4067600Y4913700D01*
X4068000Y4911200D01*
G02X4012200Y4780000I-131015J-21745D01*
G01Y4464100D01*
X4289300Y4187000D01*
X4291800Y4187400D01*
G02X4425500Y4108500I16148J-125367D01*
G03X4444500I9500J3796D01*
G02X4570300Y4188100I117511J-46508D01*
G03X4578100Y4205500I608J10176D01*
G01X4306300Y4477400D01*
Y4780000D01*
G02X4456700I75200J109500D01*
G01Y4539600D01*
X4774200Y4222100D01*
Y3913900D01*
X4304100Y3443800D01*
G03X4311100Y3426400I7212J-7206D01*
G02X4324200Y3425400I-3060J-126390D01*
G01X4326700Y3425000D01*
X4814300Y3912600D01*
Y4780000D01*
G02X4964700I75200J109500D01*
G01Y3850400D01*
X4558100Y3443800D01*
G03X4565100Y3426400I7212J-7206D01*
G02X4444500Y3253500I-3077J-126364D01*
G03X4425500I-9500J-3796D01*
G02X4190500I-117500J46500D01*
G03X4171500I-9500J-3796D01*
G02X3945400Y3235400I-117499J46528D01*
G03X3926400Y3230200I-8790J-5194D01*
G01Y3223800D01*
G02X3876200Y3173600I-50200J0D01*
G01X3723800D01*
G02X3673600Y3223800I0J50200D01*
G01Y3376200D01*
G02X3723800Y3426400I50200J0D01*
G01X3876200D01*
G02X3926400Y3376200I0J-50200D01*
G01Y3369800D01*
G03X3945400Y3364600I10210J-6D01*
G02X4070200Y3425400I108666J-64567D01*
G01X4072700Y3425000D01*
X4565900Y3918200D01*
G03X4558900Y3935600I-7212J7206D01*
G02X4444500Y4015500I3153J126362D01*
G03X4425500I-9500J-3796D01*
G02X4190500I-117500J46500D01*
G03X4171500I-9500J-3796D01*
G02X4072000Y3936900I-117522J46493D01*
G01X4070400Y3936700D01*
X3656200Y3522500D01*
Y3093500D01*
X4004200Y2745500D01*
G37*
G36*
G01X5376200Y3173600D02*
X5223800D01*
G02X5173600Y3223800I0J50200D01*
G01Y3376200D01*
G02X5223800Y3426400I50200J0D01*
G01X5376200D01*
G02X5426400Y3376200I0J-50200D01*
G01Y3369800D01*
G03X5445400Y3364600I10210J-6D01*
G02X5478800Y3401600I108675J-64526D01*
G01Y3431900D01*
X5004800Y3905900D01*
Y4222200D01*
X5747300Y4964700D01*
X5986500D01*
G02Y4814300I109500J-75200D01*
G01X5809500D01*
X5155200Y4160000D01*
Y3968100D01*
X5629200Y3494100D01*
Y3401600D01*
G02X5671500Y3346500I-75244J-101551D01*
G03X5690500I9500J3796D01*
G02X5925500I117500J-46500D01*
G03X5944500I9500J3796D01*
G02Y3253500I117500J-46500D01*
G03X5925500I-9500J-3796D01*
G02X5690500I-117500J46500D01*
G03X5671500I-9500J-3796D01*
G02X5445400Y3235400I-117499J46528D01*
G03X5426400Y3230200I-8790J-5194D01*
G01Y3223800D01*
G02X5376200Y3173600I-50200J0D01*
G37*
G36*
G01X1472200Y3919500D02*
G02X1272700Y3763200I-75211J-109471D01*
G03X1253800Y3763600I-9530J-3587D01*
G02Y3856400I-110800J46400D01*
G03X1272700Y3856800I9370J3987D01*
G02X1321800Y3919500I124310J-46772D01*
G01Y4328100D01*
X1869400Y4875800D01*
X1869000Y4878300D01*
G02X1978300Y4769000I131000J21700D01*
G01X1975800Y4769400D01*
X1472200Y4265900D01*
Y3919500D01*
G37*
G36*
G01X5417500Y4015500D02*
G02Y4108500I-117500J46500D01*
G03X5436500I9500J3796D01*
G02X5671500I117500J-46500D01*
G03X5690500I9500J3796D01*
G02X5824200Y4187400I117552J-46467D01*
G01X5826700Y4187000D01*
X6159900Y4520200D01*
X6395900D01*
X6401800Y4526100D01*
Y5746100D01*
X6536900Y5881300D01*
X6536500Y5883800D01*
G02X6645800Y5774500I131000J21700D01*
G01X6643300Y5774900D01*
X6552200Y5683900D01*
Y4986500D01*
G03X6569900Y4979500I10209J-63D01*
G02Y4799500I97600J-90000D01*
G03X6552200Y4792500I-7491J-6937D01*
G01Y4463900D01*
X6458100Y4369800D01*
X6222100D01*
X6058100Y4205800D01*
G03X6065100Y4188400I7212J-7206D01*
G02X5944500Y4015500I-3077J-126364D01*
G03X5925500I-9500J-3796D01*
G02X5690500I-117500J46500D01*
G03X5671500I-9500J-3796D01*
G02X5436500I-117500J46500D01*
G03X5417500I-9500J-3796D01*
G37*
G36*
G01X6917500D02*
G02Y4108500I-117500J46500D01*
G03X6936500I9500J3796D01*
G02X7171500I117500J-46500D01*
G03X7190500I9500J3796D01*
G02X7425500I117500J-46500D01*
G03X7444500I9500J3796D01*
G02Y4015500I117500J-46500D01*
G03X7425500I-9500J-3796D01*
G02X7190500I-117500J46500D01*
G03X7171500I-9500J-3796D01*
G02X6936500I-117500J46500D01*
G03X6917500I-9500J-3796D01*
G37*
G36*
G01X5189300Y2515800D02*
G03X5172700I-8300J-5870D01*
G02X4948700Y2499600I-118675J84195D01*
G03X4931500Y2495100I-7337J-7079D01*
G02X4895200Y2467200I-36266J9621D01*
G01X4704800D01*
G02X4667200Y2504800I-50J37550D01*
G01Y2695200D01*
G02X4704800Y2732800I37550J50D01*
G01X4895200D01*
G02X4931500Y2704900I34J-37521D01*
G03X4948700Y2700400I9863J2579D01*
G02X5172700Y2684200I105325J-100395D01*
G03X5189300I8300J5870D01*
G02Y2515800I118700J-84200D01*
G37*
G36*
G01X6673600Y3223800D02*
Y3376200D01*
G02X6723800Y3426400I50200J0D01*
G01X6876200D01*
G02X6926400Y3376200I0J-50200D01*
G01Y3223800D01*
G02X6876200Y3173600I-50200J0D01*
G01X6723800D01*
G02X6673600Y3223800I0J50200D01*
G37*
G36*
G01X7326700Y3425000D02*
X7735300Y3833600D01*
Y4731400D01*
X7652400Y4814300D01*
X7348500D01*
G02Y4964700I-109500J75200D01*
G01X7714600D01*
X7885700Y4793600D01*
Y3771400D01*
X7558100Y3443800D01*
G03X7565100Y3426400I7212J-7206D01*
G02X7444500Y3253500I-3077J-126364D01*
G03X7425500I-9500J-3796D01*
G02X7324200Y3425400I-117522J46542D01*
G01X7326700Y3425000D01*
G37*
G54D20*
X6096000Y5905500D03*
X2600000Y5916000D03*
G54D19*
X7054000Y3300000D03*
G54D21*
X1400000Y5600000D03*
X1146000Y5346000D03*
X1400000Y5092000D03*
G54D18*
X8400000Y4216000D03*
Y3200000D03*
X7239000Y5905500D03*
X5400000Y5900000D03*
Y4884000D03*
X2000000Y5916000D03*
%LPD*%
G75*
G54D10*
X500000Y500000D03*
Y6500000D03*
X9500000Y500000D03*
Y6500000D03*
G54D11*
X500000Y3492000D03*
Y3746000D03*
Y4000000D03*
X1400000Y5092000D03*
X1146000Y5346000D03*
X1400000Y5600000D03*
X2300000Y4062000D03*
X3062000Y3300000D03*
X2808000D03*
X2554000D03*
X3062000Y4062000D03*
X2808000D03*
X2554000D03*
X3800000D03*
X4562000Y3300000D03*
X4308000D03*
X4054000D03*
X4562000Y4062000D03*
X4308000D03*
X4054000D03*
X5300000D03*
X6062000Y3300000D03*
X5808000D03*
X5554000D03*
X6062000Y4062000D03*
X5808000D03*
X5554000D03*
X6800000D03*
X7562000Y3300000D03*
X7308000D03*
X7054000D03*
X7562000Y4062000D03*
X7308000D03*
X7054000D03*
X9500000Y3754000D03*
Y3500000D03*
G54D12*
X1000000Y2654000D03*
Y2400000D03*
X1143000Y3810000D03*
X1397000D03*
X2159000Y2413000D03*
Y2667000D03*
X1600000Y2654000D03*
Y2400000D03*
X2000000Y4900000D03*
Y5916000D03*
X2800000Y2654000D03*
Y2400000D03*
X2600000Y4900000D03*
Y5916000D03*
X3683000Y4889500D03*
X3200000Y4900000D03*
Y5916000D03*
X3937000Y4889500D03*
X4381500D03*
Y5905500D03*
X4889500Y4889500D03*
Y5905500D03*
X6096000Y4889500D03*
X5400000Y4884000D03*
X6096000Y5905500D03*
X5400000Y5900000D03*
X6667500Y4889500D03*
Y5905500D03*
X7239000Y4889500D03*
Y5905500D03*
X8400000Y3200000D03*
Y4216000D03*
G54D13*
X2300000Y3300000D03*
X3800000D03*
X5300000D03*
X6800000D03*
G54D14*
X3500000Y2600000D03*
X4800000D03*
G54D15*
X3754000D03*
X4008000D03*
X5054000D03*
X5308000D03*
G54D16*
G01X3062000Y3300000D02*
Y2916000D01*
X2800000Y2654000D01*
G01X4008000Y2600000D02*
X3556000Y3052000D01*
Y3564000D01*
X4054000Y4062000D01*
G54D17*
G01X500000Y3627200D02*
Y3746000D01*
G01X2159000Y2413000D02*
X1955000D01*
X1905000Y2463000D01*
Y3429000D01*
X1842000Y3492000D01*
X500000D01*
G01Y4000000D02*
X317500Y3817500D01*
Y3429000D01*
X444500Y3302000D01*
X698000D01*
X1600000Y2400000D01*
G01X500000Y3746000D02*
X618800D01*
G01X500000D02*
Y3864800D01*
G01X1000000Y2654000D02*
X1125200D01*
G01X874800D02*
X1000000D01*
G01D02*
Y2779200D01*
G01X1143000Y3684800D02*
Y3810000D01*
G01X1017800D02*
X1143000D01*
G01D02*
Y3935200D01*
G01X1397000Y3810000D02*
Y4297000D01*
X2000000Y4900000D01*
G01X2159000Y2667000D02*
X2284200D01*
G01X2033800D02*
X2159000D01*
G01D02*
Y2792200D01*
G01X1600000Y2654000D02*
X1725200D01*
G01X1474800D02*
X1600000D01*
G01D02*
Y2779200D01*
G01X2554000Y3300000D02*
X2095500Y3758500D01*
Y4127500D01*
X2600000Y4632000D01*
Y4900000D01*
G01X2800000Y2400000D02*
X2925200D01*
G01X2674800D02*
X2800000D01*
G01Y2274800D02*
Y2400000D01*
G01X3200000Y4900000D02*
Y4454000D01*
X2808000Y4062000D01*
G01X2600000Y5916000D02*
X2725200D01*
G01X2474800D02*
X2600000D01*
G01D02*
Y6041200D01*
G01Y5790800D02*
Y5916000D01*
G01X3200000D02*
X3609000D01*
X3683000Y5842000D01*
Y4889500D01*
G01X4054000Y3300000D02*
X4699000Y3945000D01*
Y4191000D01*
X4381500Y4508500D01*
Y4889500D01*
G01X4889500D02*
Y3881500D01*
X4308000Y3300000D01*
G01X3937000Y4889500D02*
Y4433000D01*
X4308000Y4062000D01*
G01X3937000Y4889500D02*
X4031100Y4983600D01*
Y5618700D01*
X4117300Y5704900D01*
X4688900D01*
X4889500Y5905500D01*
G01X4381500D02*
X4506700D01*
G01X4256300D02*
X4381500D01*
G01D02*
Y6030700D01*
G01X4662100Y2600000D02*
X4800000D01*
G01D02*
Y2737900D01*
G01Y2462100D02*
Y2600000D01*
G01X5554000Y3300000D02*
Y3463000D01*
X5080000Y3937000D01*
Y4191100D01*
X5778400Y4889500D01*
X6096000D01*
G01X5808000Y4062000D02*
X6191000Y4445000D01*
X6427000D01*
X6477000Y4495000D01*
Y5715000D01*
X6667500Y5905500D01*
G01X5970800D02*
X6096000D01*
G01D02*
X6221200D01*
G01X6096000D02*
Y6030700D01*
G01Y5780300D02*
Y5905500D01*
G01X7054000Y3300000D02*
X7172800D01*
G01X6935200D02*
X7054000D01*
G01D02*
Y3418800D01*
G01Y3181200D02*
Y3300000D01*
G01X7239000Y4889500D02*
X7683500D01*
X7810500Y4762500D01*
Y3802500D01*
X7308000Y3300000D01*
G01X9500000Y3635200D02*
Y3754000D01*
G01X9381200D02*
X9500000D01*
G01D02*
Y3872800D01*
M02*
