G04 ================== begin FILE IDENTIFICATION RECORD ==================*
G04 Layout Name:  C:/USERS/USER/DESKTOP/신성욱 교수님/EXAM/0801_1/allegro/OSC.brd*
G04 Film Name:    BOTTOM*
G04 File Format:  Gerber RS274X*
G04 File Origin:  Cadence Allegro 17.2-P019*
G04 Origin Date:  Thu Aug 01 11:23:35 2019*
G04 *
G04 Layer:  ETCH/BOTTOM*
G04 Layer:  PIN/BOTTOM*
G04 Layer:  VIA CLASS/BOTTOM*
G04 *
G04 Offset:    (0.000 0.000)*
G04 Mirror:    No*
G04 Mode:      Positive*
G04 Rotation:  0*
G04 FullContactRelief:  No*
G04 UndefLineWidth:     0.000*
G04 ================== end FILE IDENTIFICATION RECORD ====================*
%FSLAX25Y25*MOMM*%
%IR0*IPPOS*OFA0.00000B0.00000*MIA0B0*SFA1.00000B1.00000*%
%ADD11C,1.524*%
%ADD12C,1.651*%
%ADD15C,1.905*%
%ADD13R,1.524X1.524*%
%ADD14R,1.905X1.905*%
%ADD10C,.635*%
%ADD16C,1.*%
%ADD17C,.5*%
%ADD18C,2.402*%
%ADD22C,2.274*%
%ADD20C,2.528*%
%ADD19C,2.656*%
%ADD23R,1.504X2.004*%
%ADD21R,1.504X1.504*%
G75*
%LPD*%
G75*
G36*
G01X754200Y500000D02*
Y754200D01*
X500000D01*
Y3365600D01*
G03Y3618400I0J126400D01*
G01Y3632300D01*
G03Y3859700I0J113700D01*
G01Y3873600D01*
G03Y4126400I0J126400D01*
G01Y6245800D01*
X754200D01*
Y6500000D01*
X9245800D01*
Y6245800D01*
X9500000D01*
Y3867700D01*
G03Y3640300I0J-113700D01*
G01Y3626400D01*
G03X9373600Y3500000I0J-126400D01*
G03X9404500Y3417200I126386J0D01*
G01X9404600Y3417100D01*
G03X9500000Y3373600I95400J82861D01*
G01Y754200D01*
X9245800D01*
Y500000D01*
X754200D01*
G37*
%LPC*%
G75*
G36*
G01X6536500Y5883800D02*
G02X6645800Y5774500I131000J21700D01*
G01X6643300Y5774900D01*
G02X6536900Y5881300I24200J130600D01*
G01X6536500Y5883800D01*
G37*
G36*
G01X4758500D02*
G02X4867800Y5774500I131000J21700D01*
G01X4865900Y5774800D01*
G02X4758800Y5882100I23636J130692D01*
G01X4758500Y5883800D01*
G37*
G36*
G01X1274900Y5582000D02*
G02X1382000Y5474900I125100J18000D01*
G01X1381300Y5475000D01*
G02X1275000Y5581300I18700J125000D01*
G01X1274900Y5582000D01*
G37*
G36*
G01X1271100Y5364000D02*
G02X1164000Y5471100I-125100J-18000D01*
G01X1164700Y5471000D01*
G02X1271000Y5364700I-18700J-125000D01*
G01X1271100Y5364000D01*
G37*
G36*
G01X1869000Y4878300D02*
G02X1978300Y4769000I131000J21700D01*
G01X1977700Y4769100D01*
G02X1869100Y4877700I22300J130900D01*
G01X1869000Y4878300D01*
G37*
G36*
G01X2679900Y5006100D02*
G02X2511900Y4999400I-79903J-106091D01*
G03X2512300Y4999800I-6997J7397D01*
G02X2679900Y5006100I87670J-99800D01*
G37*
G36*
G01X6569900Y4979500D02*
G02Y4799500I97600J-90000D01*
G03X6569100Y4800300I-7614J-6814D01*
G02X6558000Y4814300I98271J89316D01*
G01X6401800D01*
Y5097700D01*
X6552200D01*
Y4986500D01*
G03X6569900Y4979500I10209J-63D01*
G37*
G36*
G01X4471500Y4987100D02*
G02X4291500I-90000J-97600D01*
G03X4292300Y4987900I-6814J7614D01*
G02X4470700I89200J-98400D01*
G03X4471500Y4987100I7614J6814D01*
G37*
G36*
G01X7217300Y5020500D02*
G02X7108000Y4911200I21700J-131000D01*
G01X7108400Y4913700D01*
G02X7214800Y5020100I130600J-24200D01*
G01X7217300Y5020500D01*
G37*
G36*
G01X4867800D02*
G02X4758500Y4911200I21700J-131000D01*
G01X4758900Y4913700D01*
G02X4865300Y5020100I130600J-24200D01*
G01X4867800Y5020500D01*
G37*
G36*
G01X6166700Y4777100D02*
G02X5970800Y4933700I-70682J112412D01*
G03X5961200Y4947300I-9625J3394D01*
G01X5729900D01*
X5747300Y4964700D01*
X5986500D01*
G02X6205500Y4814300I109500J-75200D01*
G02X6166700Y4777100I-109418J75290D01*
G37*
G36*
G01X4012200Y4780000D02*
G02X3819100Y4828500I-75152J109443D01*
G03X3800900I-9100J-4720D01*
G02X3798500Y4824000I-118362J60236D01*
G02X3704700Y5020500I-115511J65499D01*
G01X3707200Y5020100D01*
X3758200Y5071100D01*
Y4999000D01*
G02X3800900Y4950500I-75322J-109361D01*
G03X3819100I9100J4720D01*
G02X3945100Y5022100I117982J-60955D01*
G03X3955900Y5032200I619J10162D01*
G01Y5155200D01*
X4106300D01*
Y5004800D01*
X4034000D01*
G03X4027000Y4987100I-63J-10209D01*
G02X4067600Y4913400I-89984J-97603D01*
G01X4068000Y4911200D01*
G02X4012200Y4780000I-131015J-21745D01*
G37*
G36*
G01X5531000Y4905700D02*
G02X5421700Y5015000I-131000J-21700D01*
G01X5423100Y5014800D01*
G02X5530800Y4907100I-23100J-130800D01*
G01X5531000Y4905700D01*
G37*
G36*
G01X6917500Y4015500D02*
G02Y4108500I-117500J46500D01*
G03X6936500I9500J3796D01*
G02X7171500I117500J-46500D01*
G03X7190500I9500J3796D01*
G02X7425500I117500J-46500D01*
G03X7444500I9500J3796D01*
G02Y4015500I117500J-46500D01*
G03X7425500I-9500J-3796D01*
G02X7190500I-117500J46500D01*
G03X7171500I-9500J-3796D01*
G02X6936500I-117500J46500D01*
G03X6917500I-9500J-3796D01*
G37*
G36*
G01X5417500D02*
G02Y4108500I-117500J46500D01*
G03X5436500I9500J3796D01*
G02X5671500I117500J-46500D01*
G03X5690500I9500J3796D01*
G02X5824200Y4187400I117552J-46467D01*
G01X5826700Y4187000D01*
X5994400Y4354700D01*
X6207000D01*
X6058100Y4205800D01*
G03X6065100Y4188400I7212J-7206D01*
G02X6162500Y4138700I-3096J-126358D01*
G03X6163000Y4138000I8546J5575D01*
G02X6188400Y4060100I-100971J-76014D01*
G02X5944500Y4015500I-126383J1943D01*
G03X5925500I-9500J-3796D01*
G02X5690500I-117500J46500D01*
G03X5671500I-9500J-3796D01*
G02X5436500I-117500J46500D01*
G03X5417500I-9500J-3796D01*
G37*
G36*
G01X2366700Y3954700D02*
G02Y4169300I-66700J107300D01*
G02X2417500Y4108500I-66694J-107347D01*
G03X2436500I9500J3796D01*
G02X2671500I117500J-46500D01*
G03X2690500I9500J3796D01*
G02X2824200Y4187400I117552J-46467D01*
G01X2826700Y4187000D01*
X2978400Y4338700D01*
X3191000D01*
X3058100Y4205800D01*
G03X3065100Y4188400I7212J-7206D01*
G02X3172200Y4123900I-3120J-126348D01*
G03X3172600Y4123200I9051J4708D01*
G02X3187000Y4080800I-110576J-61199D01*
G02X2944500Y4015500I-124998J-18733D01*
G03X2925500I-9500J-3796D01*
G02X2690500I-117500J46500D01*
G03X2671500I-9500J-3796D01*
G02X2436500I-117500J46500D01*
G03X2417500I-9500J-3796D01*
G02X2366700Y3954700I-117494J46547D01*
G37*
G36*
G01X5325000Y3798300D02*
X5112400D01*
X5004800Y3905900D01*
Y4222200D01*
X5137300Y4354700D01*
X5349900D01*
X5155200Y4160000D01*
Y3968100D01*
X5325000Y3798300D01*
G37*
G36*
G01X4912600D02*
X4700000D01*
X4814300Y3912600D01*
Y4354700D01*
X4964700D01*
Y3850400D01*
X4912600Y3798300D01*
G37*
G36*
G01X4658600D02*
X4465400D01*
X4455700Y3808000D01*
X4565900Y3918200D01*
G03X4558900Y3935600I-7212J7206D01*
G02X4444500Y4015500I3153J126362D01*
G03X4425500I-9500J-3796D01*
G02X4190500I-117500J46500D01*
G03X4171500I-9500J-3796D01*
G02X3936500I-117500J46500D01*
G03X3917500I-9500J-3796D01*
G02X3769500Y3939300I-117533J46453D01*
G03X3768200Y3939700I-3649J-9546D01*
G02X3917500Y4108500I31782J122316D01*
G03X3936500I9500J3796D01*
G02X4050900Y4188400I117553J-46462D01*
G03X4057900Y4205800I-212J10194D01*
G01X4057000Y4206700D01*
X4163300Y4313000D01*
X4289300Y4187000D01*
X4291800Y4187400D01*
G02X4425500Y4108500I16148J-125367D01*
G03X4444500I9500J3796D01*
G02X4570300Y4188100I117511J-46508D01*
G03X4578100Y4205500I608J10176D01*
G01X4429000Y4354700D01*
X4641600D01*
X4774200Y4222100D01*
Y3913900D01*
X4658600Y3798300D01*
G37*
G36*
G01X2225500Y3734800D02*
X2020300D01*
Y3885200D01*
X2170700D01*
Y3789600D01*
X2225500Y3734800D01*
G37*
G36*
G01X1472200Y3919500D02*
G02X1272700Y3763200I-75211J-109471D01*
G03X1253800Y3763600I-9530J-3587D01*
G02Y3856400I-110800J46400D01*
G03X1272700Y3856800I9370J3987D01*
G02X1472200Y3919500I124305J-46781D01*
G37*
G36*
G01X3656200Y3351400D02*
X3455800D01*
Y3551800D01*
X3685500D01*
X3656200Y3522500D01*
Y3351400D01*
G37*
G36*
G01X7672200Y3362000D02*
G02X7444500Y3253500I-110179J-61954D01*
G03X7425500I-9500J-3796D01*
G02X7182100Y3288000I-117552J46511D01*
G02X7207000Y3376000I125869J11908D01*
G03X7207500Y3376700I-8046J6275D01*
G02X7324200Y3425400I100500J-76653D01*
G01X7326700Y3425000D01*
X7452700Y3551000D01*
X7559000Y3444700D01*
X7558100Y3443800D01*
G03X7565100Y3426400I7212J-7206D01*
G02X7578300Y3425400I-2936J-126372D01*
G01X7578400Y3425300D01*
X7580000Y3425100D01*
G02X7672200Y3362000I-17944J-125130D01*
G37*
G36*
G01X6876200Y3173600D02*
X6723800D01*
G02X6673600Y3223800I0J50200D01*
G01Y3376200D01*
G02X6723800Y3426400I50200J0D01*
G01X6876200D01*
G02X6926400Y3376200I0J-50200D01*
G01Y3223800D01*
G02X6876200Y3173600I-50200J0D01*
G37*
G36*
G01X5376200D02*
X5223800D01*
G02X5173600Y3223800I0J50200D01*
G01Y3376200D01*
G02X5223800Y3426400I50200J0D01*
G01X5376200D01*
G02X5426400Y3376200I0J-50200D01*
G01Y3369800D01*
G03X5445400Y3364600I10210J-6D01*
G02X5671500Y3346500I108601J-64628D01*
G03X5690500I9500J3796D01*
G02X5925500I117500J-46500D01*
G03X5944500I9500J3796D01*
G02Y3253500I117500J-46500D01*
G03X5925500I-9500J-3796D01*
G02X5690500I-117500J46500D01*
G03X5671500I-9500J-3796D01*
G02X5445400Y3235400I-117499J46528D01*
G03X5426400Y3230200I-8790J-5194D01*
G01Y3223800D01*
G02X5376200Y3173600I-50200J0D01*
G37*
G36*
G01X3876200D02*
X3723800D01*
G02X3673600Y3223800I0J50200D01*
G01Y3376200D01*
G02X3723800Y3426400I50200J0D01*
G01X3876200D01*
G02X3926400Y3376200I0J-50200D01*
G01Y3369800D01*
G03X3945400Y3364600I10210J-6D01*
G02X4070200Y3425400I108666J-64567D01*
G01X4072700Y3425000D01*
X4199500Y3551800D01*
X4412100D01*
X4304100Y3443800D01*
G03X4311100Y3426400I7212J-7206D01*
G02X4324200Y3425400I-3060J-126390D01*
G01X4326700Y3425000D01*
X4452700Y3551000D01*
X4559000Y3444700D01*
X4558100Y3443800D01*
G03X4565100Y3426400I7212J-7206D01*
G02X4578300Y3425400I-2936J-126372D01*
G01X4578400Y3425300D01*
X4580000Y3425100D01*
G02X4688000Y3290100I-18007J-125106D01*
G02X4444500Y3253500I-125997J9958D01*
G03X4425500I-9500J-3796D01*
G02X4190500I-117500J46500D01*
G03X4171500I-9500J-3796D01*
G02X3945400Y3235400I-117499J46528D01*
G03X3926400Y3230200I-8790J-5194D01*
G01Y3223800D01*
G02X3876200Y3173600I-50200J0D01*
G37*
G36*
G01X2376200D02*
X2223800D01*
G02X2173600Y3223800I0J50200D01*
G01Y3376200D01*
G02X2223800Y3426400I50200J0D01*
G01X2376200D01*
G02X2426400Y3376200I0J-50200D01*
G01Y3369800D01*
G03X2445400Y3364600I10210J-6D01*
G02X2671500Y3346500I108601J-64628D01*
G03X2690500I9500J3796D01*
G02X2925500I117500J-46500D01*
G03X2944500I9500J3796D01*
G02X3044300Y3425100I117506J-46540D01*
G01X3045600Y3425300D01*
G02X3187400Y3283700I16450J-125327D01*
G01X3187300Y3283600D01*
X3187100Y3282000D01*
G02X2944500Y3253500I-125092J18030D01*
G03X2925500I-9500J-3796D01*
G02X2690500I-117500J46500D01*
G03X2671500I-9500J-3796D01*
G02X2445400Y3235400I-117499J46528D01*
G03X2426400Y3230200I-8790J-5194D01*
G01Y3223800D01*
G02X2376200Y3173600I-50200J0D01*
G37*
G36*
G01X8269000Y3178300D02*
G02X8378300Y3069000I131000J21700D01*
G01X8376900Y3069200D01*
G02X8269200Y3176900I23100J130800D01*
G01X8269000Y3178300D01*
G37*
G36*
G01X3162200Y2947800D02*
X2952100D01*
X2961800Y2957500D01*
Y3148200D01*
X3162200D01*
Y2947800D01*
G37*
G36*
G01X1424000Y2682300D02*
X1317700Y2576000D01*
X1176000Y2717700D01*
X1282300Y2824000D01*
X1424000Y2682300D01*
G37*
G36*
G01X1980200Y2673900D02*
X1829800Y2523400D01*
Y2736100D01*
X1968900Y2875200D01*
X1980200D01*
Y2673900D01*
G37*
G36*
G01X4006400Y2745500D02*
G02X3882300Y2526700I1594J-145498D01*
G03X3865000Y2527100I-8775J-5189D01*
G02X3654400Y2512200I-110985J72909D01*
G01X3652900Y2513900D01*
X3645400D01*
Y2504700D01*
G02X3595300Y2454600I-50150J50D01*
G01X3404700D01*
G02X3354600Y2504700I50J50150D01*
G01Y2695300D01*
G02X3404700Y2745400I50150J-50D01*
G01X3595300D01*
G02X3645400Y2695300I-50J-50150D01*
G01Y2686100D01*
X3652900D01*
X3654400Y2687800D01*
G02X3717300Y2727600I99603J-87809D01*
G03X3721700Y2744600I-2839J9804D01*
G01X3455800Y3010500D01*
Y3148200D01*
X3601500D01*
X4004200Y2745500D01*
X4006400D01*
G37*
G36*
G01X5413500Y2499800D02*
G02X5189300Y2515800I-105521J100193D01*
G03X5172700I-8300J-5870D01*
G02X4948700Y2499600I-118675J84195D01*
G03X4931500Y2495100I-7337J-7079D01*
G02X4895300Y2467200I-36266J9621D01*
G01X4704800D01*
G02X4667200Y2504700I-50J37550D01*
G01Y2695300D01*
G02X4704800Y2732800I37550J-50D01*
G01X4895300D01*
G02X4931500Y2704900I-66J-37521D01*
G03X4948700Y2700400I9863J2579D01*
G02X5172700Y2684200I105325J-100395D01*
G03X5189300I8300J5870D01*
G02X5206300Y2704000I118446J-84498D01*
G01X5207800Y2705500D01*
G02X5408200I100200J-105500D01*
G02X5413500Y2700200I-100200J-105500D01*
G02Y2499800I-105500J-100200D01*
G37*
G36*
G01X2180700Y2282000D02*
G02X2112200Y2537300I-21710J131015D01*
G03X2112600Y2556200I-3587J9530D01*
G02X2047200Y2710900I46396J110788D01*
G03X2047400Y2711300I-8979J4740D01*
G02X2159000Y2787100I111600J-44254D01*
G02X2270800Y2710900I3J-120111D01*
G02X2205400Y2556200I-111796J-43912D01*
G03X2205800Y2537300I3987J-9370D01*
G02X2291800Y2413900I-46820J-124297D01*
G02X2290000Y2391300I-132804J-794D01*
G01X2289900Y2391000D01*
G02X2182200Y2282200I-130987J21957D01*
G01X2180700Y2282000D01*
G37*
G36*
G01X2846400Y2510800D02*
G02X2753600I-46400J-110800D01*
G03X2753200Y2529700I-3987J9370D01*
G02X2788900Y2786300I46809J124271D01*
G01X2790800Y2786500D01*
X2879500Y2875200D01*
X3162200D01*
Y2874500D01*
X3012500Y2724800D01*
X2929500D01*
G03X2920300Y2710300I33J-10189D01*
G02X2932500Y2644800I-120292J-56292D01*
G01X2932300Y2642900D01*
G02X2846800Y2529700I-132333J11062D01*
G03X2846400Y2510800I3587J-9530D01*
G37*
G36*
G01X1132300Y2388900D02*
G02X871100Y2368000I-132326J11121D01*
G02X953200Y2524300I128903J32003D01*
G03X953600Y2543200I-3587J9530D01*
G02X1106100Y2710300I46406J110787D01*
G02X1046400Y2543200I-106105J-56306D01*
G03X1046800Y2524300I3987J-9370D01*
G02X1132500Y2390800I-46800J-124300D01*
G01X1132300Y2388900D01*
G37*
G36*
G01X1619500Y2268600D02*
G02X1469000Y2421600I-19458J131380D01*
G01X1469400Y2424100D01*
G02X1553200Y2524300I130595J-24078D01*
G03X1553600Y2543200I-3587J9530D01*
G02X1600000Y2774100I46417J110784D01*
G02X1646400Y2543200I-17J-120116D01*
G03X1646800Y2524300I3987J-9370D01*
G02X1730600Y2424200I-46774J-124284D01*
G01X1731000Y2421700D01*
G02X1619500Y2268600I-131030J-21725D01*
G37*
G54D18*
X2600000Y5916000D03*
X6096000Y5905500D03*
X4381500D03*
G54D22*
X7054000Y3300000D03*
G54D20*
X1400000Y5092000D03*
G54D19*
X3200000Y5916000D03*
X2000000D03*
X7239000Y5905500D03*
X5400000Y5900000D03*
X3200000Y4900000D03*
X8400000Y4216000D03*
G54D23*
X1905000Y3048000D03*
G54D21*
X7810500Y4216000D03*
%LPD*%
G75*
G54D10*
X500000Y500000D03*
Y6500000D03*
X9500000Y500000D03*
Y6500000D03*
G54D11*
X500000Y3492000D03*
Y3746000D03*
Y4000000D03*
X1400000Y5092000D03*
X1146000Y5346000D03*
X1400000Y5600000D03*
X2300000Y4062000D03*
X3062000Y3300000D03*
X2808000D03*
X2554000D03*
X3062000Y4062000D03*
X2808000D03*
X2554000D03*
X3800000D03*
X4562000Y3300000D03*
X4308000D03*
X4054000D03*
X4562000Y4062000D03*
X4308000D03*
X4054000D03*
X5300000D03*
X6062000Y3300000D03*
X5808000D03*
X5554000D03*
X6062000Y4062000D03*
X5808000D03*
X5554000D03*
X6800000D03*
X7562000Y3300000D03*
X7308000D03*
X7054000D03*
X7562000Y4062000D03*
X7308000D03*
X7054000D03*
X9500000Y3754000D03*
Y3500000D03*
G54D12*
X1000000Y2654000D03*
Y2400000D03*
X1143000Y3810000D03*
X1397000D03*
X2159000Y2413000D03*
Y2667000D03*
X1600000Y2654000D03*
Y2400000D03*
X2000000Y4900000D03*
Y5916000D03*
X2800000Y2654000D03*
Y2400000D03*
X2600000Y4900000D03*
Y5916000D03*
X3683000Y4889500D03*
X3200000Y4900000D03*
Y5916000D03*
X3937000Y4889500D03*
X4381500D03*
Y5905500D03*
X4889500Y4889500D03*
Y5905500D03*
X6096000Y4889500D03*
X5400000Y4884000D03*
X6096000Y5905500D03*
X5400000Y5900000D03*
X6667500Y4889500D03*
Y5905500D03*
X7239000Y4889500D03*
Y5905500D03*
X8400000Y3200000D03*
Y4216000D03*
G54D13*
X2300000Y3300000D03*
X3800000D03*
X5300000D03*
X6800000D03*
G54D14*
X3500000Y2600000D03*
X4800000D03*
G54D15*
X3754000D03*
X4008000D03*
X5054000D03*
X5308000D03*
G54D16*
G01X3062000Y3300000D02*
Y2916000D01*
X2800000Y2654000D01*
G01X4008000Y2600000D02*
X3556000Y3052000D01*
Y3564000D01*
X4054000Y4062000D01*
G54D17*
G01X500000Y3627200D02*
Y3746000D01*
G01X2159000Y2413000D02*
X1955000D01*
X1905000Y2463000D01*
Y3429000D01*
X1842000Y3492000D01*
X500000D01*
G01Y4000000D02*
X317500Y3817500D01*
Y3429000D01*
X444500Y3302000D01*
X698000D01*
X1600000Y2400000D01*
G01X500000Y3746000D02*
X618800D01*
G01X500000D02*
Y3864800D01*
G01X1000000Y2654000D02*
X1125200D01*
G01X874800D02*
X1000000D01*
G01D02*
Y2779200D01*
G01X1143000Y3684800D02*
Y3810000D01*
G01X1017800D02*
X1143000D01*
G01D02*
Y3935200D01*
G01X1397000Y3810000D02*
Y4297000D01*
X2000000Y4900000D01*
G01X2159000Y2667000D02*
X2284200D01*
G01X2033800D02*
X2159000D01*
G01D02*
Y2792200D01*
G01X1600000Y2654000D02*
X1725200D01*
G01X1474800D02*
X1600000D01*
G01D02*
Y2779200D01*
G01X2600000Y4900000D02*
X2360000D01*
X2095500Y4635500D01*
Y3758500D01*
X2554000Y3300000D01*
G01X2800000Y2400000D02*
X2925200D01*
G01X2674800D02*
X2800000D01*
G01Y2274800D02*
Y2400000D01*
G01X3200000Y4900000D02*
Y4454000D01*
X2808000Y4062000D01*
G01X2600000Y5916000D02*
X2725200D01*
G01X2474800D02*
X2600000D01*
G01D02*
Y6041200D01*
G01Y5790800D02*
Y5916000D01*
G01X3200000D02*
X3609000D01*
X3683000Y5842000D01*
Y4889500D01*
G01X4054000Y3300000D02*
X4699000Y3945000D01*
Y4191000D01*
X4381500Y4508500D01*
Y4889500D01*
G01X4889500D02*
Y3881500D01*
X4308000Y3300000D01*
G01X3937000Y4889500D02*
Y4433000D01*
X4308000Y4062000D01*
G01X3937000Y4889500D02*
X4031100Y4983600D01*
Y5618700D01*
X4117300Y5704900D01*
X4688900D01*
X4889500Y5905500D01*
G01X4381500D02*
X4506700D01*
G01X4256300D02*
X4381500D01*
G01D02*
Y6030700D01*
G01X4662100Y2600000D02*
X4800000D01*
G01D02*
Y2737900D01*
G01Y2462100D02*
Y2600000D01*
G01X5554000Y3300000D02*
Y3463000D01*
X5080000Y3937000D01*
Y4191100D01*
X5778400Y4889500D01*
X6096000D01*
G01X5808000Y4062000D02*
X6191000Y4445000D01*
X6427000D01*
X6477000Y4495000D01*
Y5715000D01*
X6667500Y5905500D01*
G01X5970800D02*
X6096000D01*
G01D02*
X6221200D01*
G01X6096000D02*
Y6030700D01*
G01Y5780300D02*
Y5905500D01*
G01X7054000Y3300000D02*
X7172800D01*
G01X6935200D02*
X7054000D01*
G01D02*
Y3418800D01*
G01Y3181200D02*
Y3300000D01*
G01X7239000Y4889500D02*
X7683500D01*
X7810500Y4762500D01*
Y3802500D01*
X7308000Y3300000D01*
G01X9500000Y3635200D02*
Y3754000D01*
G01X9381200D02*
X9500000D01*
G01D02*
Y3872800D01*
M02*
