G04 ================== begin FILE IDENTIFICATION RECORD ==================*
G04 Layout Name:  C:/USERS/USER/DESKTOP/신성욱 교수님/EXAM/0801_1/allegro/OSC.brd*
G04 Film Name:    SilkT*
G04 File Format:  Gerber RS274X*
G04 File Origin:  Cadence Allegro 17.2-P019*
G04 Origin Date:  Thu Aug 01 11:16:18 2019*
G04 *
G04 Layer:  REF DES/SILKSCREEN_TOP*
G04 Layer:  PACKAGE GEOMETRY/SILKSCREEN_TOP*
G04 Layer:  BOARD GEOMETRY/SILKSCREEN_TOP*
G04 *
G04 Offset:    (0.000 0.000)*
G04 Mirror:    No*
G04 Mode:      Positive*
G04 Rotation:  0*
G04 FullContactRelief:  No*
G04 UndefLineWidth:     0.200*
G04 ================== end FILE IDENTIFICATION RECORD ====================*
%FSLAX25Y25*MOMM*%
%IR0*IPPOS*OFA0.00000B0.00000*MIA0B0*SFA1.00000B1.00000*%
%ADD10C,.203*%
%ADD11C,.5*%
%ADD12C,.2*%
G75*
%LPD*%
G75*
G54D10*
G01X3220600Y2892100D02*
Y2320600D01*
G01D02*
X4287400D01*
G01Y2892100D02*
X3220600D01*
G01Y2752400D02*
X4287400D01*
G01Y2320600D02*
Y2892100D01*
G01X4520600D02*
Y2320600D01*
G01D02*
X5587400D01*
G01Y2892100D02*
X4520600D01*
G01Y2752400D02*
X5587400D01*
G01Y2320600D02*
Y2892100D01*
G54D11*
G01X3766700Y300000D02*
X3633300D01*
Y800000D01*
X3766700D01*
G01X3713300Y558300D02*
X3633300D01*
G01X3848500Y800000D02*
Y300000D01*
X3981900D01*
G01X4197100D02*
X4063700D01*
Y800000D01*
X4197100D01*
G01X4143700Y558300D02*
X4063700D01*
G01X4418900Y758300D02*
X4398900Y783300D01*
X4375600Y800000D01*
X4348900D01*
X4318900Y775000D01*
X4295600Y733300D01*
X4278900Y683300D01*
X4265600Y600000D01*
X4262300Y525000D01*
X4268900Y450000D01*
X4278900Y400000D01*
X4298900Y350000D01*
X4322300Y316700D01*
X4345600Y300000D01*
X4368900D01*
X4392300Y316700D01*
X4412300Y341700D01*
X4428900Y375000D01*
G01X4560800Y800000D02*
Y300000D01*
G01X4484100Y800000D02*
X4637500D01*
G01X4709300Y300000D02*
Y800000D01*
X4792700D01*
X4819300Y775000D01*
X4836000Y741700D01*
X4842700Y675000D01*
X4836000Y608300D01*
X4816000Y566700D01*
X4792700Y541700D01*
X4709300D01*
G01X4792700D02*
X4842700Y300000D01*
G01X4991200D02*
X4964500Y308300D01*
X4941200Y341700D01*
X4921200Y391700D01*
X4907900Y450000D01*
X4901200Y516700D01*
Y583300D01*
X4907900Y650000D01*
X4921200Y708300D01*
X4941200Y758300D01*
X4964500Y791700D01*
X4991200Y800000D01*
X5017900Y791700D01*
X5041200Y758300D01*
X5061200Y708300D01*
X5074500Y650000D01*
X5081200Y583300D01*
Y516700D01*
X5074500Y450000D01*
X5061200Y391700D01*
X5041200Y341700D01*
X5017900Y308300D01*
X4991200Y300000D01*
G01X5129700D02*
Y800000D01*
X5283100Y300000D01*
Y800000D01*
G01X5381600D02*
X5461600D01*
G01X5421600D02*
Y300000D01*
G01X5381600D02*
X5461600D01*
G01X5925300Y758300D02*
X5905300Y783300D01*
X5882000Y800000D01*
X5855300D01*
X5825300Y775000D01*
X5802000Y733300D01*
X5785300Y683300D01*
X5772000Y600000D01*
X5768700Y525000D01*
X5775300Y450000D01*
X5785300Y400000D01*
X5805300Y350000D01*
X5828700Y316700D01*
X5852000Y300000D01*
X5875300D01*
X5898700Y316700D01*
X5918700Y341700D01*
X5935300Y375000D01*
G01X5983900Y300000D02*
X6067200Y800000D01*
X6150500Y300000D01*
G01X6120500Y475000D02*
X6013900D01*
G01X6209100Y300000D02*
Y800000D01*
X6275700D01*
X6302400Y775000D01*
X6322400Y741700D01*
X6339100Y691700D01*
X6352400Y633300D01*
X6355700Y550000D01*
X6352400Y466700D01*
X6339100Y408300D01*
X6322400Y358300D01*
X6302400Y325000D01*
X6275700Y300000D01*
X6209100D01*
G01X4100000Y6200000D02*
X4073300Y6208300D01*
X4050000Y6241700D01*
X4030000Y6291700D01*
X4016700Y6350000D01*
X4010000Y6416700D01*
Y6483300D01*
X4016700Y6550000D01*
X4030000Y6608300D01*
X4050000Y6658300D01*
X4073300Y6691700D01*
X4100000Y6700000D01*
X4126700Y6691700D01*
X4150000Y6658300D01*
X4170000Y6608300D01*
X4183300Y6550000D01*
X4190000Y6483300D01*
Y6416700D01*
X4183300Y6350000D01*
X4170000Y6291700D01*
X4150000Y6241700D01*
X4126700Y6208300D01*
X4100000Y6200000D01*
G01X4245200Y6266700D02*
X4271900Y6225000D01*
X4301900Y6200000D01*
X4328500D01*
X4355200Y6225000D01*
X4375200Y6266700D01*
X4385200Y6325000D01*
X4378500Y6383300D01*
X4361900Y6433300D01*
X4331900Y6466700D01*
X4291900Y6483300D01*
X4268500Y6516700D01*
X4258500Y6575000D01*
X4265200Y6633300D01*
X4281900Y6675000D01*
X4305200Y6700000D01*
X4328500D01*
X4351900Y6683300D01*
X4371900Y6641700D01*
G01X4603700Y6658300D02*
X4583700Y6683300D01*
X4560400Y6700000D01*
X4533700D01*
X4503700Y6675000D01*
X4480400Y6633300D01*
X4463700Y6583300D01*
X4450400Y6500000D01*
X4447100Y6425000D01*
X4453700Y6350000D01*
X4463700Y6300000D01*
X4483700Y6250000D01*
X4507100Y6216700D01*
X4530400Y6200000D01*
X4553700D01*
X4577100Y6216700D01*
X4597100Y6241700D01*
X4613700Y6275000D01*
G01X4705600Y6700000D02*
X4785600D01*
G01X4745600D02*
Y6200000D01*
G01X4705600D02*
X4785600D01*
G01X4894100Y6700000D02*
Y6200000D01*
X5027500D01*
G01X5109300Y6700000D02*
Y6200000D01*
X5242700D01*
G01X5307900D02*
X5391200Y6700000D01*
X5474500Y6200000D01*
G01X5444500Y6375000D02*
X5337900D01*
G01X5606400Y6700000D02*
Y6200000D01*
G01X5529700Y6700000D02*
X5683100D01*
G01X5821600Y6200000D02*
X5794900Y6208300D01*
X5771600Y6241700D01*
X5751600Y6291700D01*
X5738300Y6350000D01*
X5731600Y6416700D01*
Y6483300D01*
X5738300Y6550000D01*
X5751600Y6608300D01*
X5771600Y6658300D01*
X5794900Y6691700D01*
X5821600Y6700000D01*
X5848300Y6691700D01*
X5871600Y6658300D01*
X5891600Y6608300D01*
X5904900Y6550000D01*
X5911600Y6483300D01*
Y6416700D01*
X5904900Y6350000D01*
X5891600Y6291700D01*
X5871600Y6241700D01*
X5848300Y6208300D01*
X5821600Y6200000D01*
G01X5970100D02*
Y6700000D01*
X6053500D01*
X6080100Y6675000D01*
X6096800Y6641700D01*
X6103500Y6575000D01*
X6096800Y6508300D01*
X6076800Y6466700D01*
X6053500Y6441700D01*
X5970100D01*
G01X6053500D02*
X6103500Y6200000D01*
G54D12*
G01X373000Y4127000D02*
X627000D01*
Y3365000D01*
X373000D01*
Y4127000D01*
G01X665600Y4109700D02*
X657800Y4104800D01*
X652500Y4099000D01*
X649900Y4092100D01*
X652500Y4084400D01*
X657800Y4078500D01*
X665600Y4072700D01*
X676100Y4070700D01*
X728600D01*
G01X715500Y4030000D02*
X723400Y4024200D01*
X727300Y4017300D01*
X728600Y4009600D01*
X726000Y3999800D01*
X719400Y3993000D01*
X711500Y3991100D01*
X703700Y3992000D01*
X697100Y3995900D01*
X684000Y4015400D01*
X674800Y4024200D01*
X661700Y4030000D01*
X649900Y4031900D01*
Y3991100D01*
G01X873000Y2273000D02*
Y2781000D01*
X1127000D01*
Y2273000D01*
X873000D01*
G01X1250000Y2836400D02*
X1240400Y2842800D01*
X1229100Y2847000D01*
X1216300D01*
X1201800Y2840600D01*
X1190500Y2830100D01*
X1182500Y2817400D01*
X1176000Y2796200D01*
X1174400Y2777100D01*
X1177700Y2758100D01*
X1182500Y2745400D01*
X1192100Y2732700D01*
X1203400Y2724200D01*
X1214600Y2720000D01*
X1225900D01*
X1237200Y2724200D01*
X1246800Y2730600D01*
X1254900Y2739000D01*
G01X1363500Y2720000D02*
Y2847000D01*
X1303900Y2756000D01*
X1384400D01*
G01X1524000Y3683000D02*
X1016000D01*
Y3937000D01*
X1524000D01*
Y3683000D01*
G01X960600Y4060000D02*
X954200Y4050400D01*
X950000Y4039100D01*
Y4026300D01*
X956400Y4011800D01*
X966900Y4000500D01*
X979600Y3992500D01*
X1000800Y3986000D01*
X1019900Y3984400D01*
X1038900Y3987700D01*
X1051600Y3992500D01*
X1064300Y4002100D01*
X1072800Y4013400D01*
X1077000Y4024600D01*
Y4035900D01*
X1072800Y4047200D01*
X1066400Y4056800D01*
X1058000Y4064900D01*
G01X971200Y4123600D02*
X958500Y4133200D01*
X952100Y4144500D01*
X950000Y4157400D01*
X954200Y4173500D01*
X964800Y4184700D01*
X977500Y4187900D01*
X990200Y4186300D01*
X1000800Y4179900D01*
X1022000Y4147700D01*
X1036800Y4133200D01*
X1058000Y4123600D01*
X1077000Y4120400D01*
Y4187900D01*
G01X1019000Y5028500D02*
Y5663500D01*
X1527000D01*
Y5028500D01*
X1019000D01*
G01X958400Y5821000D02*
X998600Y5694000D01*
X1038900Y5821000D01*
G01X1096000Y5694000D02*
Y5821000D01*
X1136200D01*
X1149100Y5814600D01*
X1157100Y5806200D01*
X1160300Y5789200D01*
X1157100Y5772300D01*
X1147500Y5761700D01*
X1136200Y5755400D01*
X1096000D01*
G01X1136200D02*
X1160300Y5694000D01*
G01X1257600D02*
Y5821000D01*
X1238300Y5795600D01*
G01Y5694000D02*
X1276900D01*
G01X2286000Y2794000D02*
Y2286000D01*
X2032000D01*
Y2794000D01*
X2286000D01*
G01X1909000Y2230600D02*
X1918600Y2224200D01*
X1929900Y2220000D01*
X1942700D01*
X1957200Y2226400D01*
X1968500Y2236900D01*
X1976500Y2249600D01*
X1983000Y2270800D01*
X1984600Y2289900D01*
X1981300Y2308900D01*
X1976500Y2321600D01*
X1966900Y2334300D01*
X1955600Y2342800D01*
X1944400Y2347000D01*
X1933100D01*
X1921800Y2342800D01*
X1912200Y2336400D01*
X1904100Y2328000D01*
G01X1850200D02*
X1840600Y2338500D01*
X1829300Y2344900D01*
X1814900Y2347000D01*
X1800400Y2342800D01*
X1789100Y2334300D01*
X1781100Y2319500D01*
X1779500Y2302600D01*
X1782700Y2285600D01*
X1790700Y2275000D01*
X1802000Y2266600D01*
X1813200Y2264500D01*
X1824500Y2266600D01*
X1839000Y2275000D01*
X1834200Y2220000D01*
X1790700D01*
G01X1473000Y2273000D02*
Y2781000D01*
X1727000D01*
Y2273000D01*
X1473000D01*
G01X1850000Y2836400D02*
X1840400Y2842800D01*
X1829100Y2847000D01*
X1816300D01*
X1801800Y2840600D01*
X1790500Y2830100D01*
X1782500Y2817400D01*
X1776000Y2796200D01*
X1774400Y2777100D01*
X1777700Y2758100D01*
X1782500Y2745400D01*
X1792100Y2732700D01*
X1803400Y2724200D01*
X1814600Y2720000D01*
X1825900D01*
X1837200Y2724200D01*
X1846800Y2730600D01*
X1854900Y2739000D01*
G01X1908800Y2745400D02*
X1918400Y2730600D01*
X1931300Y2722100D01*
X1945800Y2720000D01*
X1958600Y2722100D01*
X1971500Y2732700D01*
X1979500Y2745400D01*
X1981100Y2758100D01*
X1977900Y2772900D01*
X1966700Y2783500D01*
X1955400Y2787700D01*
X1940900D01*
G01X1955400D02*
X1965100Y2794100D01*
X1973100Y2804700D01*
X1976300Y2817400D01*
X1973100Y2830100D01*
X1965100Y2840600D01*
X1950600Y2847000D01*
X1936100Y2844900D01*
X1921600Y2836400D01*
G01X2173000Y3401600D02*
Y3554000D01*
X2236500Y3617500D01*
Y3744500D01*
X2173000Y3808000D01*
Y3960400D01*
X3189000D01*
Y3401600D01*
X2173000D01*
G01X1873000Y5052400D02*
Y5763600D01*
X2127000D01*
Y5052400D01*
X1873000D01*
G01X2149400Y5522300D02*
Y5601000D01*
X2173800D01*
X2181600Y5597100D01*
X2186400Y5591800D01*
X2188400Y5581300D01*
X2186400Y5570800D01*
X2180600Y5564300D01*
X2173800Y5560300D01*
X2149400D01*
G01X2173800D02*
X2188400Y5522300D01*
G01X2247600D02*
Y5601000D01*
X2235900Y5585300D01*
G01Y5522300D02*
X2259300D01*
G01X2673000Y2273000D02*
Y2781000D01*
X2927000D01*
Y2273000D01*
X2673000D01*
G01X2317800Y4205700D02*
X2408800D01*
X2427900Y4212100D01*
X2440600Y4225000D01*
X2444800Y4241000D01*
X2440600Y4257100D01*
X2427900Y4270000D01*
X2408800Y4276400D01*
X2317800D01*
G01X2444800Y4370500D02*
X2317800D01*
X2343200Y4351200D01*
G01X2444800D02*
Y4389800D01*
G01X2473000Y5052400D02*
Y5763600D01*
X2727000D01*
Y5052400D01*
X2473000D01*
G01X2749400Y5522300D02*
Y5601000D01*
X2773800D01*
X2781600Y5597100D01*
X2786400Y5591800D01*
X2788400Y5581300D01*
X2786400Y5570800D01*
X2780600Y5564300D01*
X2773800Y5560300D01*
X2749400D01*
G01X2773800D02*
X2788400Y5522300D01*
G01X2847600D02*
X2854400Y5523600D01*
X2862200Y5527500D01*
X2867100Y5534100D01*
X2869000Y5543300D01*
X2867100Y5552500D01*
X2861200Y5560300D01*
X2852500Y5564300D01*
X2842700D01*
X2836900Y5566900D01*
X2832000Y5573500D01*
X2830100Y5582600D01*
X2833000Y5591800D01*
X2839800Y5598400D01*
X2847600Y5601000D01*
X2855400Y5598400D01*
X2862200Y5591800D01*
X2865100Y5582600D01*
X2863200Y5573500D01*
X2858300Y5566900D01*
X2852500Y5564300D01*
X2842700D01*
X2834000Y5560300D01*
X2828100Y5552500D01*
X2826200Y5543300D01*
X2828100Y5534100D01*
X2833000Y5527500D01*
X2840800Y5523600D01*
X2847600Y5522300D01*
G01X3229400Y2285000D02*
Y2148500D01*
X3238800Y2119900D01*
X3257800Y2100800D01*
X3281500Y2094500D01*
X3305200Y2100800D01*
X3324200Y2119900D01*
X3333600Y2148500D01*
Y2285000D01*
G01X3419900Y2123100D02*
X3434100Y2107200D01*
X3450700Y2097700D01*
X3472000Y2094500D01*
X3493300Y2100800D01*
X3509900Y2113500D01*
X3521800Y2135800D01*
X3524100Y2161200D01*
X3519400Y2186600D01*
X3507500Y2202500D01*
X3491000Y2215100D01*
X3474400Y2218300D01*
X3457800Y2215100D01*
X3436500Y2202500D01*
X3443600Y2285000D01*
X3507500D01*
G01X3050000Y2836400D02*
X3040400Y2842800D01*
X3029100Y2847000D01*
X3016300D01*
X3001800Y2840600D01*
X2990500Y2830100D01*
X2982500Y2817400D01*
X2976000Y2796200D01*
X2974400Y2777100D01*
X2977700Y2758100D01*
X2982500Y2745400D01*
X2992100Y2732700D01*
X3003400Y2724200D01*
X3014600Y2720000D01*
X3025900D01*
X3037200Y2724200D01*
X3046800Y2730600D01*
X3054900Y2739000D01*
G01X3113600Y2772900D02*
X3124800Y2787700D01*
X3134500Y2796200D01*
X3147400Y2800400D01*
X3158600Y2796200D01*
X3166700Y2787700D01*
X3173100Y2775000D01*
X3174700Y2760200D01*
X3173100Y2747500D01*
X3166700Y2734800D01*
X3157000Y2724200D01*
X3145800Y2720000D01*
X3132900Y2724200D01*
X3121600Y2736900D01*
X3115200Y2756000D01*
X3113600Y2777100D01*
X3116800Y2804700D01*
X3121600Y2819500D01*
X3129700Y2834300D01*
X3140900Y2844900D01*
X3152200Y2847000D01*
X3163500Y2842800D01*
X3171500Y2832200D01*
G01X3673000Y3401600D02*
Y3554000D01*
X3736500Y3617500D01*
Y3744500D01*
X3673000Y3808000D01*
Y3960400D01*
X4689000D01*
Y3401600D01*
X3673000D01*
G01X3556000Y5016500D02*
X4064000D01*
Y4762500D01*
X3556000D01*
Y5016500D01*
G01X3073000Y5052400D02*
Y5763600D01*
X3327000D01*
Y5052400D01*
X3073000D01*
G01X3349400Y5522300D02*
Y5601000D01*
X3373800D01*
X3381600Y5597100D01*
X3386400Y5591800D01*
X3388400Y5581300D01*
X3386400Y5570800D01*
X3380600Y5564300D01*
X3373800Y5560300D01*
X3349400D01*
G01X3373800D02*
X3388400Y5522300D01*
G01X3426200Y5534100D02*
X3432000Y5527500D01*
X3438800Y5523600D01*
X3447600Y5522300D01*
X3456400Y5524900D01*
X3463200Y5530200D01*
X3468000Y5539400D01*
X3469000Y5549800D01*
X3467100Y5560300D01*
X3462200Y5566900D01*
X3455400Y5572100D01*
X3448600Y5573500D01*
X3441800Y5572100D01*
X3433000Y5566900D01*
X3435900Y5601000D01*
X3462200D01*
G01X3817800Y4205700D02*
X3908800D01*
X3927900Y4212100D01*
X3940600Y4225000D01*
X3944800Y4241000D01*
X3940600Y4257100D01*
X3927900Y4270000D01*
X3908800Y4276400D01*
X3817800D01*
G01X3839000Y4340000D02*
X3826300Y4349600D01*
X3819900Y4360900D01*
X3817800Y4373800D01*
X3822000Y4389900D01*
X3832600Y4401100D01*
X3845300Y4404300D01*
X3858000Y4402700D01*
X3868600Y4396300D01*
X3889800Y4364100D01*
X3904600Y4349600D01*
X3925800Y4340000D01*
X3944800Y4336800D01*
Y4404300D01*
G01X4119400Y4639500D02*
X4125800Y4649100D01*
X4130000Y4660400D01*
Y4673200D01*
X4123600Y4687700D01*
X4113100Y4699000D01*
X4100400Y4707000D01*
X4079200Y4713500D01*
X4060100Y4715100D01*
X4041100Y4711800D01*
X4028400Y4707000D01*
X4015700Y4697400D01*
X4007200Y4686100D01*
X4003000Y4674900D01*
Y4663600D01*
X4007200Y4652300D01*
X4013600Y4642700D01*
X4022000Y4634600D01*
G01X4003000Y4545400D02*
X4130000D01*
X4104600Y4564700D01*
G01X4003000D02*
Y4526100D01*
G01X4254500Y5041900D02*
Y5753100D01*
X4508500D01*
Y5041900D01*
X4254500D01*
G01X4529400Y2285000D02*
Y2148500D01*
X4538800Y2119900D01*
X4557800Y2100800D01*
X4581500Y2094500D01*
X4605200Y2100800D01*
X4624200Y2119900D01*
X4633600Y2148500D01*
Y2285000D01*
G01X4727000Y2173900D02*
X4743600Y2196100D01*
X4757800Y2208800D01*
X4776700Y2215100D01*
X4793300Y2208800D01*
X4805200Y2196100D01*
X4814700Y2177000D01*
X4817000Y2154800D01*
X4814700Y2135800D01*
X4805200Y2116700D01*
X4791000Y2100800D01*
X4774400Y2094500D01*
X4755400Y2100800D01*
X4738800Y2119900D01*
X4729300Y2148500D01*
X4727000Y2180200D01*
X4731700Y2221500D01*
X4738800Y2243700D01*
X4750700Y2265900D01*
X4767300Y2281800D01*
X4783800Y2285000D01*
X4800400Y2278700D01*
X4812300Y2262800D01*
G01X5173000Y3401600D02*
Y3554000D01*
X5236500Y3617500D01*
Y3744500D01*
X5173000Y3808000D01*
Y3960400D01*
X6189000D01*
Y3401600D01*
X5173000D01*
G01X4762500Y5041900D02*
Y5753100D01*
X5016500D01*
Y5041900D01*
X4762500D01*
G01X5250600Y5277700D02*
Y5199000D01*
X5226200D01*
X5218400Y5202900D01*
X5213600Y5208200D01*
X5211600Y5218700D01*
X5213600Y5229200D01*
X5219400Y5235700D01*
X5226200Y5239700D01*
X5250600D01*
G01X5226200D02*
X5211600Y5277700D01*
G01X5173800Y5262000D02*
X5168000Y5271100D01*
X5160200Y5276400D01*
X5151400Y5277700D01*
X5143600Y5276400D01*
X5135900Y5269800D01*
X5131000Y5262000D01*
X5130000Y5254100D01*
X5132000Y5244900D01*
X5138800Y5238400D01*
X5145600Y5235700D01*
X5154300D01*
G01X5145600D02*
X5139700Y5231800D01*
X5134900Y5225200D01*
X5132900Y5217400D01*
X5134900Y5209500D01*
X5139700Y5202900D01*
X5148500Y5199000D01*
X5157300Y5200300D01*
X5166000Y5205600D01*
G01X4530900Y5511800D02*
Y5590500D01*
X4555300D01*
X4563100Y5586600D01*
X4567900Y5581300D01*
X4569900Y5570800D01*
X4567900Y5560300D01*
X4562100Y5553800D01*
X4555300Y5549800D01*
X4530900D01*
G01X4555300D02*
X4569900Y5511800D01*
G01X4610600Y5544600D02*
X4617400Y5553800D01*
X4623300Y5559000D01*
X4631000Y5561600D01*
X4637900Y5559000D01*
X4642700Y5553800D01*
X4646600Y5545900D01*
X4647600Y5536700D01*
X4646600Y5528900D01*
X4642700Y5521000D01*
X4636900Y5514400D01*
X4630100Y5511800D01*
X4622300Y5514400D01*
X4615500Y5522300D01*
X4611600Y5534100D01*
X4610600Y5547200D01*
X4612600Y5564300D01*
X4615500Y5573400D01*
X4620300Y5582600D01*
X4627200Y5589200D01*
X4634000Y5590500D01*
X4640800Y5587900D01*
X4645600Y5581300D01*
G01X5038900Y5511800D02*
Y5590500D01*
X5063300D01*
X5071100Y5586600D01*
X5075900Y5581300D01*
X5077900Y5570800D01*
X5075900Y5560300D01*
X5070100Y5553800D01*
X5063300Y5549800D01*
X5038900D01*
G01X5063300D02*
X5077900Y5511800D01*
G01X5118600Y5577400D02*
X5124400Y5585300D01*
X5131300Y5589200D01*
X5139000Y5590500D01*
X5148800Y5587900D01*
X5155600Y5581300D01*
X5157500Y5573400D01*
X5156600Y5565600D01*
X5152700Y5559000D01*
X5133200Y5545900D01*
X5124400Y5536700D01*
X5118600Y5523600D01*
X5116700Y5511800D01*
X5157500D01*
G01X5317800Y4205700D02*
X5408800D01*
X5427900Y4212100D01*
X5440600Y4225000D01*
X5444800Y4241000D01*
X5440600Y4257100D01*
X5427900Y4270000D01*
X5408800Y4276400D01*
X5317800D01*
G01X5419400Y4335200D02*
X5434200Y4344800D01*
X5442700Y4357700D01*
X5444800Y4372200D01*
X5442700Y4385000D01*
X5432100Y4397900D01*
X5419400Y4405900D01*
X5406700Y4407500D01*
X5391900Y4404300D01*
X5381300Y4393100D01*
X5377100Y4381800D01*
Y4367300D01*
G01Y4381800D02*
X5370700Y4391500D01*
X5360100Y4399500D01*
X5347400Y4402700D01*
X5334700Y4399500D01*
X5324200Y4391500D01*
X5317800Y4377000D01*
X5319900Y4362500D01*
X5328400Y4348000D01*
G01X5969000Y5041900D02*
Y5753100D01*
X6223000D01*
Y5041900D01*
X5969000D01*
G01X5527000Y5747600D02*
Y5036400D01*
X5273000D01*
Y5747600D01*
X5527000D01*
G01X6673000Y3401600D02*
Y3554000D01*
X6736500Y3617500D01*
Y3744500D01*
X6673000Y3808000D01*
Y3960400D01*
X7689000D01*
Y3401600D01*
X6673000D01*
G01X6540500Y5041900D02*
Y5753100D01*
X6794500D01*
Y5041900D01*
X6540500D01*
G01X6206100Y5511800D02*
Y5590500D01*
X6230500D01*
X6238300Y5586600D01*
X6243100Y5581300D01*
X6245100Y5570800D01*
X6243100Y5560300D01*
X6237300Y5553800D01*
X6230500Y5549800D01*
X6206100D01*
G01X6230500D02*
X6245100Y5511800D01*
G01X6304300D02*
Y5590500D01*
X6292600Y5574800D01*
G01Y5511800D02*
X6316000D01*
G01X6383000Y5590500D02*
X6375200Y5587900D01*
X6369400Y5581300D01*
X6365500Y5573400D01*
X6362600Y5563000D01*
X6361600Y5551100D01*
X6362600Y5539300D01*
X6365500Y5528900D01*
X6369400Y5521000D01*
X6375200Y5514400D01*
X6383000Y5511800D01*
X6390800Y5514400D01*
X6396600Y5521000D01*
X6400500Y5528900D01*
X6403400Y5539300D01*
X6404400Y5551100D01*
X6403400Y5563000D01*
X6400500Y5573400D01*
X6396600Y5581300D01*
X6390800Y5587900D01*
X6383000Y5590500D01*
G01X6817800Y4205700D02*
X6908800D01*
X6927900Y4212100D01*
X6940600Y4225000D01*
X6944800Y4241000D01*
X6940600Y4257100D01*
X6927900Y4270000D01*
X6908800Y4276400D01*
X6817800D01*
G01X6944800Y4389900D02*
X6817800D01*
X6908800Y4330300D01*
Y4410800D01*
G01X7366000Y5753100D02*
Y5041900D01*
X7112000D01*
Y5753100D01*
X7366000D01*
G01X7089600Y5283200D02*
Y5204500D01*
X7065200D01*
X7057400Y5208400D01*
X7052600Y5213700D01*
X7050600Y5224200D01*
X7052600Y5234700D01*
X7058400Y5241200D01*
X7065200Y5245200D01*
X7089600D01*
G01X7065200D02*
X7050600Y5283200D01*
G01X6993300D02*
X6991400Y5266100D01*
X6988500Y5251700D01*
X6984600Y5238600D01*
X6979700Y5224200D01*
X6971900Y5204500D01*
X7010900D01*
G01X6816900Y5511800D02*
Y5590500D01*
X6841300D01*
X6849100Y5586600D01*
X6853900Y5581300D01*
X6855900Y5570800D01*
X6853900Y5560300D01*
X6848100Y5553800D01*
X6841300Y5549800D01*
X6816900D01*
G01X6841300D02*
X6855900Y5511800D01*
G01X6898600Y5521000D02*
X6905400Y5514400D01*
X6913200Y5511800D01*
X6920900Y5514400D01*
X6927800Y5522300D01*
X6932600Y5534100D01*
X6934600Y5545900D01*
Y5560300D01*
X6932600Y5572100D01*
X6927800Y5582600D01*
X6921900Y5587900D01*
X6915100Y5590500D01*
X6907300Y5587900D01*
X6901500Y5582600D01*
X6897600Y5574800D01*
X6895600Y5564300D01*
X6897600Y5555100D01*
X6902400Y5545900D01*
X6908300Y5540700D01*
X6915100Y5539300D01*
X6922900Y5542000D01*
X6928700Y5548500D01*
X6934600Y5560300D01*
G01X8273000Y3352400D02*
Y4063600D01*
X8527000D01*
Y3352400D01*
X8273000D01*
G01X8549400Y3822300D02*
Y3901000D01*
X8573800D01*
X8581600Y3897100D01*
X8586400Y3891800D01*
X8588400Y3881300D01*
X8586400Y3870800D01*
X8580600Y3864300D01*
X8573800Y3860300D01*
X8549400D01*
G01X8573800D02*
X8588400Y3822300D01*
G01X8659300D02*
Y3901000D01*
X8623300Y3844600D01*
X8671900D01*
G01X9627000Y3373000D02*
X9373000D01*
Y3881000D01*
X9627000D01*
Y3373000D01*
G01X9344600Y3370000D02*
X9352400Y3374900D01*
X9357700Y3380700D01*
X9360300Y3387600D01*
X9357700Y3395300D01*
X9352400Y3401200D01*
X9344600Y3407000D01*
X9334100Y3409000D01*
X9281600D01*
G01X9360300Y3468200D02*
X9281600D01*
X9297300Y3456500D01*
G01X9360300D02*
Y3479900D01*
M02*
