G04 ================== begin FILE IDENTIFICATION RECORD ==================*
G04 Layout Name:  C:/USERS/USER/DESKTOP/신성욱 교수님/EXAM/0801_1/allegro/OSC.brd*
G04 Film Name:    SilkT*
G04 File Format:  Gerber RS274X*
G04 File Origin:  Cadence Allegro 17.2-P019*
G04 Origin Date:  Thu Aug 01 11:23:35 2019*
G04 *
G04 Layer:  REF DES/SILKSCREEN_TOP*
G04 Layer:  PACKAGE GEOMETRY/SILKSCREEN_TOP*
G04 Layer:  BOARD GEOMETRY/SILKSCREEN_TOP*
G04 *
G04 Offset:    (0.000 0.000)*
G04 Mirror:    No*
G04 Mode:      Positive*
G04 Rotation:  0*
G04 FullContactRelief:  No*
G04 UndefLineWidth:     0.200*
G04 ================== end FILE IDENTIFICATION RECORD ====================*
%FSLAX25Y25*MOMM*%
%IR0*IPPOS*OFA0.00000B0.00000*MIA0B0*SFA1.00000B1.00000*%
%ADD10C,.203*%
%ADD11C,.5*%
%ADD12C,.2*%
G75*
%LPD*%
G75*
G54D10*
G01X3220600Y2892100D02*
Y2320600D01*
G01D02*
X4287400D01*
G01Y2892100D02*
X3220600D01*
G01Y2752400D02*
X4287400D01*
G01Y2320600D02*
Y2892100D01*
G01X4520600D02*
Y2320600D01*
G01D02*
X5587400D01*
G01Y2892100D02*
X4520600D01*
G01Y2752400D02*
X5587400D01*
G01Y2320600D02*
Y2892100D01*
G54D11*
G01X3766700Y300000D02*
X3633300D01*
Y800000D01*
X3766700D01*
G01X3713300Y558300D02*
X3633300D01*
G01X3848500Y800000D02*
Y300000D01*
X3981900D01*
G01X4197100D02*
X4063700D01*
Y800000D01*
X4197100D01*
G01X4143700Y558300D02*
X4063700D01*
G01X4418900Y758300D02*
X4398900Y783300D01*
X4375600Y800000D01*
X4348900D01*
X4318900Y775000D01*
X4295600Y733300D01*
X4278900Y683300D01*
X4265600Y600000D01*
X4262300Y525000D01*
X4268900Y450000D01*
X4278900Y400000D01*
X4298900Y350000D01*
X4322300Y316700D01*
X4345600Y300000D01*
X4368900D01*
X4392300Y316700D01*
X4412300Y341700D01*
X4428900Y375000D01*
G01X4560800Y800000D02*
Y300000D01*
G01X4484100Y800000D02*
X4637500D01*
G01X4709300Y300000D02*
Y800000D01*
X4792700D01*
X4819300Y775000D01*
X4836000Y741700D01*
X4842700Y675000D01*
X4836000Y608300D01*
X4816000Y566700D01*
X4792700Y541700D01*
X4709300D01*
G01X4792700D02*
X4842700Y300000D01*
G01X4991200D02*
X4964500Y308300D01*
X4941200Y341700D01*
X4921200Y391700D01*
X4907900Y450000D01*
X4901200Y516700D01*
Y583300D01*
X4907900Y650000D01*
X4921200Y708300D01*
X4941200Y758300D01*
X4964500Y791700D01*
X4991200Y800000D01*
X5017900Y791700D01*
X5041200Y758300D01*
X5061200Y708300D01*
X5074500Y650000D01*
X5081200Y583300D01*
Y516700D01*
X5074500Y450000D01*
X5061200Y391700D01*
X5041200Y341700D01*
X5017900Y308300D01*
X4991200Y300000D01*
G01X5129700D02*
Y800000D01*
X5283100Y300000D01*
Y800000D01*
G01X5381600D02*
X5461600D01*
G01X5421600D02*
Y300000D01*
G01X5381600D02*
X5461600D01*
G01X5925300Y758300D02*
X5905300Y783300D01*
X5882000Y800000D01*
X5855300D01*
X5825300Y775000D01*
X5802000Y733300D01*
X5785300Y683300D01*
X5772000Y600000D01*
X5768700Y525000D01*
X5775300Y450000D01*
X5785300Y400000D01*
X5805300Y350000D01*
X5828700Y316700D01*
X5852000Y300000D01*
X5875300D01*
X5898700Y316700D01*
X5918700Y341700D01*
X5935300Y375000D01*
G01X5983900Y300000D02*
X6067200Y800000D01*
X6150500Y300000D01*
G01X6120500Y475000D02*
X6013900D01*
G01X6209100Y300000D02*
Y800000D01*
X6275700D01*
X6302400Y775000D01*
X6322400Y741700D01*
X6339100Y691700D01*
X6352400Y633300D01*
X6355700Y550000D01*
X6352400Y466700D01*
X6339100Y408300D01*
X6322400Y358300D01*
X6302400Y325000D01*
X6275700Y300000D01*
X6209100D01*
G01X4100000Y6200000D02*
X4073300Y6208300D01*
X4050000Y6241700D01*
X4030000Y6291700D01*
X4016700Y6350000D01*
X4010000Y6416700D01*
Y6483300D01*
X4016700Y6550000D01*
X4030000Y6608300D01*
X4050000Y6658300D01*
X4073300Y6691700D01*
X4100000Y6700000D01*
X4126700Y6691700D01*
X4150000Y6658300D01*
X4170000Y6608300D01*
X4183300Y6550000D01*
X4190000Y6483300D01*
Y6416700D01*
X4183300Y6350000D01*
X4170000Y6291700D01*
X4150000Y6241700D01*
X4126700Y6208300D01*
X4100000Y6200000D01*
G01X4245200Y6266700D02*
X4271900Y6225000D01*
X4301900Y6200000D01*
X4328500D01*
X4355200Y6225000D01*
X4375200Y6266700D01*
X4385200Y6325000D01*
X4378500Y6383300D01*
X4361900Y6433300D01*
X4331900Y6466700D01*
X4291900Y6483300D01*
X4268500Y6516700D01*
X4258500Y6575000D01*
X4265200Y6633300D01*
X4281900Y6675000D01*
X4305200Y6700000D01*
X4328500D01*
X4351900Y6683300D01*
X4371900Y6641700D01*
G01X4603700Y6658300D02*
X4583700Y6683300D01*
X4560400Y6700000D01*
X4533700D01*
X4503700Y6675000D01*
X4480400Y6633300D01*
X4463700Y6583300D01*
X4450400Y6500000D01*
X4447100Y6425000D01*
X4453700Y6350000D01*
X4463700Y6300000D01*
X4483700Y6250000D01*
X4507100Y6216700D01*
X4530400Y6200000D01*
X4553700D01*
X4577100Y6216700D01*
X4597100Y6241700D01*
X4613700Y6275000D01*
G01X4705600Y6700000D02*
X4785600D01*
G01X4745600D02*
Y6200000D01*
G01X4705600D02*
X4785600D01*
G01X4894100Y6700000D02*
Y6200000D01*
X5027500D01*
G01X5109300Y6700000D02*
Y6200000D01*
X5242700D01*
G01X5307900D02*
X5391200Y6700000D01*
X5474500Y6200000D01*
G01X5444500Y6375000D02*
X5337900D01*
G01X5606400Y6700000D02*
Y6200000D01*
G01X5529700Y6700000D02*
X5683100D01*
G01X5821600Y6200000D02*
X5794900Y6208300D01*
X5771600Y6241700D01*
X5751600Y6291700D01*
X5738300Y6350000D01*
X5731600Y6416700D01*
Y6483300D01*
X5738300Y6550000D01*
X5751600Y6608300D01*
X5771600Y6658300D01*
X5794900Y6691700D01*
X5821600Y6700000D01*
X5848300Y6691700D01*
X5871600Y6658300D01*
X5891600Y6608300D01*
X5904900Y6550000D01*
X5911600Y6483300D01*
Y6416700D01*
X5904900Y6350000D01*
X5891600Y6291700D01*
X5871600Y6241700D01*
X5848300Y6208300D01*
X5821600Y6200000D01*
G01X5970100D02*
Y6700000D01*
X6053500D01*
X6080100Y6675000D01*
X6096800Y6641700D01*
X6103500Y6575000D01*
X6096800Y6508300D01*
X6076800Y6466700D01*
X6053500Y6441700D01*
X5970100D01*
G01X6053500D02*
X6103500Y6200000D01*
G54D12*
G01X669100Y2465900D02*
X659500Y2472300D01*
X648200Y2476500D01*
X635400D01*
X620900Y2470100D01*
X609600Y2459600D01*
X601600Y2446900D01*
X595100Y2425700D01*
X593500Y2406600D01*
X596800Y2387600D01*
X601600Y2374900D01*
X611200Y2362200D01*
X622500Y2353700D01*
X633700Y2349500D01*
X645000D01*
X656300Y2353700D01*
X665900Y2360100D01*
X674000Y2368500D01*
G01X782600Y2349500D02*
Y2476500D01*
X723000Y2385500D01*
X803500D01*
G01X411100Y3200400D02*
X419100Y3187700D01*
X428800Y3179200D01*
X440000Y3175000D01*
X452900Y3179200D01*
X462600Y3187700D01*
X472200Y3200400D01*
X475400Y3217300D01*
Y3302000D01*
G01X542200Y3280800D02*
X551800Y3293500D01*
X563100Y3299900D01*
X576000Y3302000D01*
X592100Y3297800D01*
X603300Y3287200D01*
X606500Y3274500D01*
X604900Y3261800D01*
X598500Y3251200D01*
X566300Y3230000D01*
X551800Y3215200D01*
X542200Y3194000D01*
X539000Y3175000D01*
X606500D01*
G01X373000Y4127000D02*
X627000D01*
Y3365000D01*
X373000D01*
Y4127000D01*
G01X1304100Y2465900D02*
X1294500Y2472300D01*
X1283200Y2476500D01*
X1270400D01*
X1255900Y2470100D01*
X1244600Y2459600D01*
X1236600Y2446900D01*
X1230100Y2425700D01*
X1228500Y2406600D01*
X1231800Y2387600D01*
X1236600Y2374900D01*
X1246200Y2362200D01*
X1257500Y2353700D01*
X1268700Y2349500D01*
X1280000D01*
X1291300Y2353700D01*
X1300900Y2360100D01*
X1309000Y2368500D01*
G01X1362900Y2374900D02*
X1372500Y2360100D01*
X1385400Y2351600D01*
X1399900Y2349500D01*
X1412700Y2351600D01*
X1425600Y2362200D01*
X1433600Y2374900D01*
X1435200Y2387600D01*
X1432000Y2402400D01*
X1420800Y2413000D01*
X1409500Y2417200D01*
X1395000D01*
G01X1409500D02*
X1419200Y2423600D01*
X1427200Y2434200D01*
X1430400Y2446900D01*
X1427200Y2459600D01*
X1419200Y2470100D01*
X1404700Y2476500D01*
X1390200Y2474400D01*
X1375700Y2465900D01*
G01X873000Y2273000D02*
Y2781000D01*
X1127000D01*
Y2273000D01*
X873000D01*
G01X1524000Y3683000D02*
X1016000D01*
Y3937000D01*
X1524000D01*
Y3683000D01*
G01X1050100Y4116900D02*
X1040500Y4123300D01*
X1029200Y4127500D01*
X1016400D01*
X1001900Y4121100D01*
X990600Y4110600D01*
X982600Y4097900D01*
X976100Y4076700D01*
X974500Y4057600D01*
X977800Y4038600D01*
X982600Y4025900D01*
X992200Y4013200D01*
X1003500Y4004700D01*
X1014700Y4000500D01*
X1026000D01*
X1037300Y4004700D01*
X1046900Y4011100D01*
X1055000Y4019500D01*
G01X1113700Y4106300D02*
X1123300Y4119000D01*
X1134600Y4125400D01*
X1147500Y4127500D01*
X1163600Y4123300D01*
X1174800Y4112700D01*
X1178000Y4100000D01*
X1176400Y4087300D01*
X1170000Y4076700D01*
X1137800Y4055500D01*
X1123300Y4040700D01*
X1113700Y4019500D01*
X1110500Y4000500D01*
X1178000D01*
G01X1019000Y5028500D02*
Y5663500D01*
X1527000D01*
Y5028500D01*
X1019000D01*
G01X973200Y5842000D02*
X1013400Y5715000D01*
X1053700Y5842000D01*
G01X1110800Y5715000D02*
Y5842000D01*
X1151000D01*
X1163900Y5835600D01*
X1171900Y5827200D01*
X1175100Y5810200D01*
X1171900Y5793300D01*
X1162300Y5782700D01*
X1151000Y5776400D01*
X1110800D01*
G01X1151000D02*
X1175100Y5715000D01*
G01X1272400D02*
Y5842000D01*
X1253100Y5816600D01*
G01Y5715000D02*
X1291700D01*
G01X1875600Y2465900D02*
X1866000Y2472300D01*
X1854700Y2476500D01*
X1841900D01*
X1827400Y2470100D01*
X1816100Y2459600D01*
X1808100Y2446900D01*
X1801600Y2425700D01*
X1800000Y2406600D01*
X1803300Y2387600D01*
X1808100Y2374900D01*
X1817700Y2362200D01*
X1829000Y2353700D01*
X1840200Y2349500D01*
X1851500D01*
X1862800Y2353700D01*
X1872400Y2360100D01*
X1880500Y2368500D01*
G01X1934400D02*
X1944000Y2358000D01*
X1955300Y2351600D01*
X1969700Y2349500D01*
X1984200Y2353700D01*
X1995500Y2362200D01*
X2003500Y2377000D01*
X2005100Y2393900D01*
X2001900Y2410900D01*
X1993900Y2421500D01*
X1982600Y2429900D01*
X1971400Y2432000D01*
X1960100Y2429900D01*
X1945600Y2421500D01*
X1950400Y2476500D01*
X1993900D01*
G01X2286000Y2794000D02*
Y2286000D01*
X2032000D01*
Y2794000D01*
X2286000D01*
G01X1473000Y2273000D02*
Y2781000D01*
X1727000D01*
Y2273000D01*
X1473000D01*
G01X1995400Y3746500D02*
Y3655500D01*
X2001800Y3636400D01*
X2014700Y3623700D01*
X2030700Y3619500D01*
X2046800Y3623700D01*
X2059700Y3636400D01*
X2066100Y3655500D01*
Y3746500D01*
G01X2160200Y3619500D02*
Y3746500D01*
X2140900Y3721100D01*
G01Y3619500D02*
X2179500D01*
G01X2173000Y3401600D02*
Y3554000D01*
X2236500Y3617500D01*
Y3744500D01*
X2173000Y3808000D01*
Y3960400D01*
X3189000D01*
Y3401600D01*
X2173000D01*
G01X1617600Y5270500D02*
Y5397500D01*
X1657800D01*
X1670700Y5391100D01*
X1678700Y5382700D01*
X1681900Y5365700D01*
X1678700Y5348800D01*
X1669100Y5338200D01*
X1657800Y5331900D01*
X1617600D01*
G01X1657800D02*
X1681900Y5270500D01*
G01X1779200D02*
Y5397500D01*
X1759900Y5372100D01*
G01Y5270500D02*
X1798500D01*
G01X2189100D02*
Y5397500D01*
X2229300D01*
X2242200Y5391100D01*
X2250200Y5382700D01*
X2253400Y5365700D01*
X2250200Y5348800D01*
X2240600Y5338200D01*
X2229300Y5331900D01*
X2189100D01*
G01X2229300D02*
X2253400Y5270500D01*
G01X2350700D02*
X2362000Y5272600D01*
X2374900Y5279000D01*
X2382900Y5289500D01*
X2386100Y5304400D01*
X2382900Y5319200D01*
X2373300Y5331900D01*
X2358800Y5338200D01*
X2342700D01*
X2333100Y5342500D01*
X2325000Y5353000D01*
X2321800Y5367900D01*
X2326600Y5382700D01*
X2337900Y5393300D01*
X2350700Y5397500D01*
X2363600Y5393300D01*
X2374900Y5382700D01*
X2379700Y5367900D01*
X2376500Y5353000D01*
X2368400Y5342500D01*
X2358800Y5338200D01*
X2342700D01*
X2328200Y5331900D01*
X2318600Y5319200D01*
X2315400Y5304400D01*
X2318600Y5289500D01*
X2326600Y5279000D01*
X2339500Y5272600D01*
X2350700Y5270500D01*
G01X1873000Y5052400D02*
Y5763600D01*
X2127000D01*
Y5052400D01*
X1873000D01*
G01X2510600Y2465900D02*
X2501000Y2472300D01*
X2489700Y2476500D01*
X2476900D01*
X2462400Y2470100D01*
X2451100Y2459600D01*
X2443100Y2446900D01*
X2436600Y2425700D01*
X2435000Y2406600D01*
X2438300Y2387600D01*
X2443100Y2374900D01*
X2452700Y2362200D01*
X2464000Y2353700D01*
X2475200Y2349500D01*
X2486500D01*
X2497800Y2353700D01*
X2507400Y2360100D01*
X2515500Y2368500D01*
G01X2574200Y2402400D02*
X2585400Y2417200D01*
X2595100Y2425700D01*
X2608000Y2429900D01*
X2619200Y2425700D01*
X2627300Y2417200D01*
X2633700Y2404500D01*
X2635300Y2389700D01*
X2633700Y2377000D01*
X2627300Y2364300D01*
X2617600Y2353700D01*
X2606400Y2349500D01*
X2593500Y2353700D01*
X2582200Y2366400D01*
X2575800Y2385500D01*
X2574200Y2406600D01*
X2577400Y2434200D01*
X2582200Y2449000D01*
X2590300Y2463800D01*
X2601500Y2474400D01*
X2612800Y2476500D01*
X2624100Y2472300D01*
X2632100Y2461700D01*
G01X2673000Y2273000D02*
Y2781000D01*
X2927000D01*
Y2273000D01*
X2673000D01*
G01X2824100Y5270500D02*
Y5397500D01*
X2864300D01*
X2877200Y5391100D01*
X2885200Y5382700D01*
X2888400Y5365700D01*
X2885200Y5348800D01*
X2875600Y5338200D01*
X2864300Y5331900D01*
X2824100D01*
G01X2864300D02*
X2888400Y5270500D01*
G01X2950400Y5289500D02*
X2960000Y5279000D01*
X2971300Y5272600D01*
X2985700Y5270500D01*
X3000200Y5274700D01*
X3011500Y5283200D01*
X3019500Y5298000D01*
X3021100Y5314900D01*
X3017900Y5331900D01*
X3009900Y5342500D01*
X2998600Y5350900D01*
X2987400Y5353000D01*
X2976100Y5350900D01*
X2961600Y5342500D01*
X2966400Y5397500D01*
X3009900D01*
G01X2473000Y5052400D02*
Y5763600D01*
X2727000D01*
Y5052400D01*
X2473000D01*
G01X3251400Y2286000D02*
Y2195000D01*
X3257800Y2175900D01*
X3270700Y2163200D01*
X3286700Y2159000D01*
X3302800Y2163200D01*
X3315700Y2175900D01*
X3322100Y2195000D01*
Y2286000D01*
G01X3380900Y2178000D02*
X3390500Y2167500D01*
X3401800Y2161100D01*
X3416200Y2159000D01*
X3430700Y2163200D01*
X3442000Y2171700D01*
X3450000Y2186500D01*
X3451600Y2203400D01*
X3448400Y2220400D01*
X3440400Y2231000D01*
X3429100Y2239400D01*
X3417900Y2241500D01*
X3406600Y2239400D01*
X3392100Y2231000D01*
X3396900Y2286000D01*
X3440400D01*
G01X3455900Y3746500D02*
Y3655500D01*
X3462300Y3636400D01*
X3475200Y3623700D01*
X3491200Y3619500D01*
X3507300Y3623700D01*
X3520200Y3636400D01*
X3526600Y3655500D01*
Y3746500D01*
G01X3590200Y3725300D02*
X3599800Y3738000D01*
X3611100Y3744400D01*
X3624000Y3746500D01*
X3640100Y3742300D01*
X3651300Y3731700D01*
X3654500Y3719000D01*
X3652900Y3706300D01*
X3646500Y3695700D01*
X3614300Y3674500D01*
X3599800Y3659700D01*
X3590200Y3638500D01*
X3587000Y3619500D01*
X3654500D01*
G01X3673000Y3401600D02*
Y3554000D01*
X3736500Y3617500D01*
Y3744500D01*
X3673000Y3808000D01*
Y3960400D01*
X4689000D01*
Y3401600D01*
X3673000D01*
G01X3653600Y4688400D02*
X3644000Y4694800D01*
X3632700Y4699000D01*
X3619900D01*
X3605400Y4692600D01*
X3594100Y4682100D01*
X3586100Y4669400D01*
X3579600Y4648200D01*
X3578000Y4629100D01*
X3581300Y4610100D01*
X3586100Y4597400D01*
X3595700Y4584700D01*
X3607000Y4576200D01*
X3618200Y4572000D01*
X3629500D01*
X3640800Y4576200D01*
X3650400Y4582600D01*
X3658500Y4591000D01*
G01X3747700Y4572000D02*
Y4699000D01*
X3728400Y4673600D01*
G01Y4572000D02*
X3767000D01*
G01X3556000Y5016500D02*
X4064000D01*
Y4762500D01*
X3556000D01*
Y5016500D01*
G01X3073000Y5052400D02*
Y5763600D01*
X3327000D01*
Y5052400D01*
X3073000D01*
G01X4030600Y5143500D02*
Y5270500D01*
X4070800D01*
X4083700Y5264100D01*
X4091700Y5255700D01*
X4094900Y5238700D01*
X4091700Y5221800D01*
X4082100Y5211200D01*
X4070800Y5204900D01*
X4030600D01*
G01X4070800D02*
X4094900Y5143500D01*
G01X4161700Y5196400D02*
X4172900Y5211200D01*
X4182600Y5219700D01*
X4195500Y5223900D01*
X4206700Y5219700D01*
X4214800Y5211200D01*
X4221200Y5198500D01*
X4222800Y5183700D01*
X4221200Y5171000D01*
X4214800Y5158300D01*
X4205100Y5147700D01*
X4193900Y5143500D01*
X4181000Y5147700D01*
X4169700Y5160400D01*
X4163300Y5179500D01*
X4161700Y5200600D01*
X4164900Y5228200D01*
X4169700Y5243000D01*
X4177800Y5257800D01*
X4189000Y5268400D01*
X4200300Y5270500D01*
X4211600Y5266300D01*
X4219600Y5255700D01*
G01X4254500Y5041900D02*
Y5753100D01*
X4508500D01*
Y5041900D01*
X4254500D01*
G01X4521400Y2222500D02*
Y2131500D01*
X4527800Y2112400D01*
X4540700Y2099700D01*
X4556700Y2095500D01*
X4572800Y2099700D01*
X4585700Y2112400D01*
X4592100Y2131500D01*
Y2222500D01*
G01X4655700Y2148400D02*
X4666900Y2163200D01*
X4676600Y2171700D01*
X4689500Y2175900D01*
X4700700Y2171700D01*
X4708800Y2163200D01*
X4715200Y2150500D01*
X4716800Y2135700D01*
X4715200Y2123000D01*
X4708800Y2110300D01*
X4699100Y2099700D01*
X4687900Y2095500D01*
X4675000Y2099700D01*
X4663700Y2112400D01*
X4657300Y2131500D01*
X4655700Y2152600D01*
X4658900Y2180200D01*
X4663700Y2195000D01*
X4671800Y2209800D01*
X4683000Y2220400D01*
X4694300Y2222500D01*
X4705600Y2218300D01*
X4713600Y2207700D01*
G01X4979900Y3746500D02*
Y3655500D01*
X4986300Y3636400D01*
X4999200Y3623700D01*
X5015200Y3619500D01*
X5031300Y3623700D01*
X5044200Y3636400D01*
X5050600Y3655500D01*
Y3746500D01*
G01X5109400Y3644900D02*
X5119000Y3630100D01*
X5131900Y3621600D01*
X5146400Y3619500D01*
X5159200Y3621600D01*
X5172100Y3632200D01*
X5180100Y3644900D01*
X5181700Y3657600D01*
X5178500Y3672400D01*
X5167300Y3683000D01*
X5156000Y3687200D01*
X5141500D01*
G01X5156000D02*
X5165700Y3693600D01*
X5173700Y3704200D01*
X5176900Y3716900D01*
X5173700Y3729600D01*
X5165700Y3740100D01*
X5151200Y3746500D01*
X5136700Y3744400D01*
X5122200Y3735900D01*
G01X5173000Y3401600D02*
Y3554000D01*
X5236500Y3617500D01*
Y3744500D01*
X5173000Y3808000D01*
Y3960400D01*
X6189000D01*
Y3401600D01*
X5173000D01*
G01X4538600Y5143500D02*
Y5270500D01*
X4578800D01*
X4591700Y5264100D01*
X4599700Y5255700D01*
X4602900Y5238700D01*
X4599700Y5221800D01*
X4590100Y5211200D01*
X4578800Y5204900D01*
X4538600D01*
G01X4578800D02*
X4602900Y5143500D01*
G01X4669700Y5249300D02*
X4679300Y5262000D01*
X4690600Y5268400D01*
X4703500Y5270500D01*
X4719600Y5266300D01*
X4730800Y5255700D01*
X4734000Y5243000D01*
X4732400Y5230300D01*
X4726000Y5219700D01*
X4693800Y5198500D01*
X4679300Y5183700D01*
X4669700Y5162500D01*
X4666500Y5143500D01*
X4734000D01*
G01X5046600D02*
Y5270500D01*
X5086800D01*
X5099700Y5264100D01*
X5107700Y5255700D01*
X5110900Y5238700D01*
X5107700Y5221800D01*
X5098100Y5211200D01*
X5086800Y5204900D01*
X5046600D01*
G01X5086800D02*
X5110900Y5143500D01*
G01X5172900Y5168900D02*
X5182500Y5154100D01*
X5195400Y5145600D01*
X5209900Y5143500D01*
X5222700Y5145600D01*
X5235600Y5156200D01*
X5243600Y5168900D01*
X5245200Y5181600D01*
X5242000Y5196400D01*
X5230800Y5207000D01*
X5219500Y5211200D01*
X5205000D01*
G01X5219500D02*
X5229200Y5217600D01*
X5237200Y5228200D01*
X5240400Y5240900D01*
X5237200Y5253600D01*
X5229200Y5264100D01*
X5214700Y5270500D01*
X5200200Y5268400D01*
X5185700Y5259900D01*
G01X4762500Y5041900D02*
Y5753100D01*
X5016500D01*
Y5041900D01*
X4762500D01*
G01X5616800Y5143500D02*
Y5270500D01*
X5657000D01*
X5669900Y5264100D01*
X5677900Y5255700D01*
X5681100Y5238700D01*
X5677900Y5221800D01*
X5668300Y5211200D01*
X5657000Y5204900D01*
X5616800D01*
G01X5657000D02*
X5681100Y5143500D01*
G01X5778400D02*
Y5270500D01*
X5759100Y5245100D01*
G01Y5143500D02*
X5797700D01*
G01X5907900Y5270500D02*
X5895100Y5266300D01*
X5885400Y5255700D01*
X5879000Y5243000D01*
X5874200Y5226000D01*
X5872600Y5207000D01*
X5874200Y5187900D01*
X5879000Y5171000D01*
X5885400Y5158300D01*
X5895100Y5147700D01*
X5907900Y5143500D01*
X5920800Y5147700D01*
X5930500Y5158300D01*
X5936900Y5171000D01*
X5941700Y5187900D01*
X5943300Y5207000D01*
X5941700Y5226000D01*
X5936900Y5243000D01*
X5930500Y5255700D01*
X5920800Y5266300D01*
X5907900Y5270500D01*
G01X5969000Y5041900D02*
Y5753100D01*
X6223000D01*
Y5041900D01*
X5969000D01*
G01X5527000Y5747600D02*
Y5036400D01*
X5273000D01*
Y5747600D01*
X5527000D01*
G01X6503900Y3746500D02*
Y3655500D01*
X6510300Y3636400D01*
X6523200Y3623700D01*
X6539200Y3619500D01*
X6555300Y3623700D01*
X6568200Y3636400D01*
X6574600Y3655500D01*
Y3746500D01*
G01X6688100Y3619500D02*
Y3746500D01*
X6628500Y3655500D01*
X6709000D01*
G01X6673000Y3401600D02*
Y3554000D01*
X6736500Y3617500D01*
Y3744500D01*
X6673000Y3808000D01*
Y3960400D01*
X7689000D01*
Y3401600D01*
X6673000D01*
G01X6316600Y5143500D02*
Y5270500D01*
X6356800D01*
X6369700Y5264100D01*
X6377700Y5255700D01*
X6380900Y5238700D01*
X6377700Y5221800D01*
X6368100Y5211200D01*
X6356800Y5204900D01*
X6316600D01*
G01X6356800D02*
X6380900Y5143500D01*
G01X6450900Y5158300D02*
X6462200Y5147700D01*
X6475000Y5143500D01*
X6487900Y5147700D01*
X6499200Y5160400D01*
X6507200Y5179500D01*
X6510400Y5198500D01*
Y5221800D01*
X6507200Y5240900D01*
X6499200Y5257800D01*
X6489500Y5266300D01*
X6478200Y5270500D01*
X6465400Y5266300D01*
X6455700Y5257800D01*
X6449300Y5245100D01*
X6446100Y5228200D01*
X6449300Y5213400D01*
X6457300Y5198500D01*
X6467000Y5190100D01*
X6478200Y5187900D01*
X6491100Y5192200D01*
X6500800Y5202800D01*
X6510400Y5221800D01*
G01X6540500Y5041900D02*
Y5753100D01*
X6794500D01*
Y5041900D01*
X6540500D01*
G01X6888100Y5143500D02*
Y5270500D01*
X6928300D01*
X6941200Y5264100D01*
X6949200Y5255700D01*
X6952400Y5238700D01*
X6949200Y5221800D01*
X6939600Y5211200D01*
X6928300Y5204900D01*
X6888100D01*
G01X6928300D02*
X6952400Y5143500D01*
G01X7046500D02*
X7049700Y5171000D01*
X7054600Y5194300D01*
X7061000Y5215500D01*
X7069100Y5238700D01*
X7081900Y5270500D01*
X7017600D01*
G01X7366000Y5753100D02*
Y5041900D01*
X7112000D01*
Y5753100D01*
X7366000D01*
G01X8031100Y3429000D02*
Y3556000D01*
X8071300D01*
X8084200Y3549600D01*
X8092200Y3541200D01*
X8095400Y3524200D01*
X8092200Y3507300D01*
X8082600Y3496700D01*
X8071300Y3490400D01*
X8031100D01*
G01X8071300D02*
X8095400Y3429000D01*
G01X8212100D02*
Y3556000D01*
X8152500Y3465000D01*
X8233000D01*
G01X8273000Y3352400D02*
Y4063600D01*
X8527000D01*
Y3352400D01*
X8273000D01*
G01X9364600Y3200400D02*
X9372600Y3187700D01*
X9382300Y3179200D01*
X9393500Y3175000D01*
X9406400Y3179200D01*
X9416100Y3187700D01*
X9425700Y3200400D01*
X9428900Y3217300D01*
Y3302000D01*
G01X9526200Y3175000D02*
Y3302000D01*
X9506900Y3276600D01*
G01Y3175000D02*
X9545500D01*
G01X9627000Y3373000D02*
X9373000D01*
Y3881000D01*
X9627000D01*
Y3373000D01*
M02*
