G04 ================== begin FILE IDENTIFICATION RECORD ==================*
G04 Layout Name:  C:/USERS/USER/DESKTOP/신성욱 교수님/EXAM/0801_1/allegro/OSC.brd*
G04 Film Name:    skikb*
G04 File Format:  Gerber RS274X*
G04 File Origin:  Cadence Allegro 17.2-P019*
G04 Origin Date:  Thu Aug 01 11:16:18 2019*
G04 *
G04 Layer:  REF DES/SILKSCREEN_BOTTOM*
G04 Layer:  PACKAGE GEOMETRY/SILKSCREEN_TOP*
G04 Layer:  PACKAGE GEOMETRY/SILKSCREEN_BOTTOM*
G04 Layer:  BOARD GEOMETRY/SILKSCREEN_TOP*
G04 Layer:  BOARD GEOMETRY/SILKSCREEN_BOTTOM*
G04 *
G04 Offset:    (0.000 0.000)*
G04 Mirror:    No*
G04 Mode:      Positive*
G04 Rotation:  0*
G04 FullContactRelief:  No*
G04 UndefLineWidth:     0.200*
G04 ================== end FILE IDENTIFICATION RECORD ====================*
%FSLAX25Y25*MOMM*%
%IR0*IPPOS*OFA0.00000B0.00000*MIA0B0*SFA1.00000B1.00000*%
%ADD10C,.203*%
%ADD11C,.5*%
%ADD12C,.2*%
G75*
%LPD*%
G75*
G54D10*
G01X3220600Y2892100D02*
Y2320600D01*
G01D02*
X4287400D01*
G01Y2892100D02*
X3220600D01*
G01Y2752400D02*
X4287400D01*
G01Y2320600D02*
Y2892100D01*
G01X4520600D02*
Y2320600D01*
G01D02*
X5587400D01*
G01Y2892100D02*
X4520600D01*
G01Y2752400D02*
X5587400D01*
G01Y2320600D02*
Y2892100D01*
G54D11*
G01X3766700Y300000D02*
X3633300D01*
Y800000D01*
X3766700D01*
G01X3713300Y558300D02*
X3633300D01*
G01X3848500Y800000D02*
Y300000D01*
X3981900D01*
G01X4197100D02*
X4063700D01*
Y800000D01*
X4197100D01*
G01X4143700Y558300D02*
X4063700D01*
G01X4418900Y758300D02*
X4398900Y783300D01*
X4375600Y800000D01*
X4348900D01*
X4318900Y775000D01*
X4295600Y733300D01*
X4278900Y683300D01*
X4265600Y600000D01*
X4262300Y525000D01*
X4268900Y450000D01*
X4278900Y400000D01*
X4298900Y350000D01*
X4322300Y316700D01*
X4345600Y300000D01*
X4368900D01*
X4392300Y316700D01*
X4412300Y341700D01*
X4428900Y375000D01*
G01X4560800Y800000D02*
Y300000D01*
G01X4484100Y800000D02*
X4637500D01*
G01X4709300Y300000D02*
Y800000D01*
X4792700D01*
X4819300Y775000D01*
X4836000Y741700D01*
X4842700Y675000D01*
X4836000Y608300D01*
X4816000Y566700D01*
X4792700Y541700D01*
X4709300D01*
G01X4792700D02*
X4842700Y300000D01*
G01X4991200D02*
X4964500Y308300D01*
X4941200Y341700D01*
X4921200Y391700D01*
X4907900Y450000D01*
X4901200Y516700D01*
Y583300D01*
X4907900Y650000D01*
X4921200Y708300D01*
X4941200Y758300D01*
X4964500Y791700D01*
X4991200Y800000D01*
X5017900Y791700D01*
X5041200Y758300D01*
X5061200Y708300D01*
X5074500Y650000D01*
X5081200Y583300D01*
Y516700D01*
X5074500Y450000D01*
X5061200Y391700D01*
X5041200Y341700D01*
X5017900Y308300D01*
X4991200Y300000D01*
G01X5129700D02*
Y800000D01*
X5283100Y300000D01*
Y800000D01*
G01X5381600D02*
X5461600D01*
G01X5421600D02*
Y300000D01*
G01X5381600D02*
X5461600D01*
G01X5925300Y758300D02*
X5905300Y783300D01*
X5882000Y800000D01*
X5855300D01*
X5825300Y775000D01*
X5802000Y733300D01*
X5785300Y683300D01*
X5772000Y600000D01*
X5768700Y525000D01*
X5775300Y450000D01*
X5785300Y400000D01*
X5805300Y350000D01*
X5828700Y316700D01*
X5852000Y300000D01*
X5875300D01*
X5898700Y316700D01*
X5918700Y341700D01*
X5935300Y375000D01*
G01X5983900Y300000D02*
X6067200Y800000D01*
X6150500Y300000D01*
G01X6120500Y475000D02*
X6013900D01*
G01X6209100Y300000D02*
Y800000D01*
X6275700D01*
X6302400Y775000D01*
X6322400Y741700D01*
X6339100Y691700D01*
X6352400Y633300D01*
X6355700Y550000D01*
X6352400Y466700D01*
X6339100Y408300D01*
X6322400Y358300D01*
X6302400Y325000D01*
X6275700Y300000D01*
X6209100D01*
G01X4100000Y6200000D02*
X4073300Y6208300D01*
X4050000Y6241700D01*
X4030000Y6291700D01*
X4016700Y6350000D01*
X4010000Y6416700D01*
Y6483300D01*
X4016700Y6550000D01*
X4030000Y6608300D01*
X4050000Y6658300D01*
X4073300Y6691700D01*
X4100000Y6700000D01*
X4126700Y6691700D01*
X4150000Y6658300D01*
X4170000Y6608300D01*
X4183300Y6550000D01*
X4190000Y6483300D01*
Y6416700D01*
X4183300Y6350000D01*
X4170000Y6291700D01*
X4150000Y6241700D01*
X4126700Y6208300D01*
X4100000Y6200000D01*
G01X4245200Y6266700D02*
X4271900Y6225000D01*
X4301900Y6200000D01*
X4328500D01*
X4355200Y6225000D01*
X4375200Y6266700D01*
X4385200Y6325000D01*
X4378500Y6383300D01*
X4361900Y6433300D01*
X4331900Y6466700D01*
X4291900Y6483300D01*
X4268500Y6516700D01*
X4258500Y6575000D01*
X4265200Y6633300D01*
X4281900Y6675000D01*
X4305200Y6700000D01*
X4328500D01*
X4351900Y6683300D01*
X4371900Y6641700D01*
G01X4603700Y6658300D02*
X4583700Y6683300D01*
X4560400Y6700000D01*
X4533700D01*
X4503700Y6675000D01*
X4480400Y6633300D01*
X4463700Y6583300D01*
X4450400Y6500000D01*
X4447100Y6425000D01*
X4453700Y6350000D01*
X4463700Y6300000D01*
X4483700Y6250000D01*
X4507100Y6216700D01*
X4530400Y6200000D01*
X4553700D01*
X4577100Y6216700D01*
X4597100Y6241700D01*
X4613700Y6275000D01*
G01X4705600Y6700000D02*
X4785600D01*
G01X4745600D02*
Y6200000D01*
G01X4705600D02*
X4785600D01*
G01X4894100Y6700000D02*
Y6200000D01*
X5027500D01*
G01X5109300Y6700000D02*
Y6200000D01*
X5242700D01*
G01X5307900D02*
X5391200Y6700000D01*
X5474500Y6200000D01*
G01X5444500Y6375000D02*
X5337900D01*
G01X5606400Y6700000D02*
Y6200000D01*
G01X5529700Y6700000D02*
X5683100D01*
G01X5821600Y6200000D02*
X5794900Y6208300D01*
X5771600Y6241700D01*
X5751600Y6291700D01*
X5738300Y6350000D01*
X5731600Y6416700D01*
Y6483300D01*
X5738300Y6550000D01*
X5751600Y6608300D01*
X5771600Y6658300D01*
X5794900Y6691700D01*
X5821600Y6700000D01*
X5848300Y6691700D01*
X5871600Y6658300D01*
X5891600Y6608300D01*
X5904900Y6550000D01*
X5911600Y6483300D01*
Y6416700D01*
X5904900Y6350000D01*
X5891600Y6291700D01*
X5871600Y6241700D01*
X5848300Y6208300D01*
X5821600Y6200000D01*
G01X5970100D02*
Y6700000D01*
X6053500D01*
X6080100Y6675000D01*
X6096800Y6641700D01*
X6103500Y6575000D01*
X6096800Y6508300D01*
X6076800Y6466700D01*
X6053500Y6441700D01*
X5970100D01*
G01X6053500D02*
X6103500Y6200000D01*
G54D12*
G01X373000Y4127000D02*
X627000D01*
Y3365000D01*
X373000D01*
Y4127000D01*
G01X873000Y2273000D02*
Y2781000D01*
X1127000D01*
Y2273000D01*
X873000D01*
G01X1524000Y3683000D02*
X1016000D01*
Y3937000D01*
X1524000D01*
Y3683000D01*
G01X1019000Y5028500D02*
Y5663500D01*
X1527000D01*
Y5028500D01*
X1019000D01*
G01X2286000Y2794000D02*
Y2286000D01*
X2032000D01*
Y2794000D01*
X2286000D01*
G01X1473000Y2273000D02*
Y2781000D01*
X1727000D01*
Y2273000D01*
X1473000D01*
G01X2173000Y3401600D02*
Y3554000D01*
X2236500Y3617500D01*
Y3744500D01*
X2173000Y3808000D01*
Y3960400D01*
X3189000D01*
Y3401600D01*
X2173000D01*
G01X1873000Y5052400D02*
Y5763600D01*
X2127000D01*
Y5052400D01*
X1873000D01*
G01X2673000Y2273000D02*
Y2781000D01*
X2927000D01*
Y2273000D01*
X2673000D01*
G01X2473000Y5052400D02*
Y5763600D01*
X2727000D01*
Y5052400D01*
X2473000D01*
G01X3673000Y3401600D02*
Y3554000D01*
X3736500Y3617500D01*
Y3744500D01*
X3673000Y3808000D01*
Y3960400D01*
X4689000D01*
Y3401600D01*
X3673000D01*
G01X3556000Y5016500D02*
X4064000D01*
Y4762500D01*
X3556000D01*
Y5016500D01*
G01X3073000Y5052400D02*
Y5763600D01*
X3327000D01*
Y5052400D01*
X3073000D01*
G01X4254500Y5041900D02*
Y5753100D01*
X4508500D01*
Y5041900D01*
X4254500D01*
G01X5173000Y3401600D02*
Y3554000D01*
X5236500Y3617500D01*
Y3744500D01*
X5173000Y3808000D01*
Y3960400D01*
X6189000D01*
Y3401600D01*
X5173000D01*
G01X4762500Y5041900D02*
Y5753100D01*
X5016500D01*
Y5041900D01*
X4762500D01*
G01X5969000D02*
Y5753100D01*
X6223000D01*
Y5041900D01*
X5969000D01*
G01X5527000Y5747600D02*
Y5036400D01*
X5273000D01*
Y5747600D01*
X5527000D01*
G01X6673000Y3401600D02*
Y3554000D01*
X6736500Y3617500D01*
Y3744500D01*
X6673000Y3808000D01*
Y3960400D01*
X7689000D01*
Y3401600D01*
X6673000D01*
G01X6540500Y5041900D02*
Y5753100D01*
X6794500D01*
Y5041900D01*
X6540500D01*
G01X7366000Y5753100D02*
Y5041900D01*
X7112000D01*
Y5753100D01*
X7366000D01*
G01X8273000Y3352400D02*
Y4063600D01*
X8527000D01*
Y3352400D01*
X8273000D01*
G01X9627000Y3373000D02*
X9373000D01*
Y3881000D01*
X9627000D01*
Y3373000D01*
M02*
