G04 ================== begin FILE IDENTIFICATION RECORD ==================*
G04 Layout Name:  C:/USERS/USER/DESKTOP/신성욱 교수님/EXAM/0801_1/allegro/OSC.brd*
G04 Film Name:    TOP*
G04 File Format:  Gerber RS274X*
G04 File Origin:  Cadence Allegro 17.2-P019*
G04 Origin Date:  Thu Aug 01 11:16:18 2019*
G04 *
G04 Layer:  ETCH/TOP*
G04 Layer:  PIN/TOP*
G04 Layer:  VIA CLASS/TOP*
G04 *
G04 Offset:    (0.000 0.000)*
G04 Mirror:    No*
G04 Mode:      Positive*
G04 Rotation:  0*
G04 FullContactRelief:  No*
G04 UndefLineWidth:     0.000*
G04 ================== end FILE IDENTIFICATION RECORD ====================*
%FSLAX25Y25*MOMM*%
%IR0*IPPOS*OFA0.00000B0.00000*MIA0B0*SFA1.00000B1.00000*%
%ADD11C,1.524*%
%ADD12C,1.651*%
%ADD15C,1.905*%
%ADD13R,1.524X1.524*%
%ADD14R,1.905X1.905*%
%ADD10C,.635*%
%ADD16C,1.*%
%ADD17C,.5*%
%ADD18C,2.402*%
%ADD19C,2.656*%
G75*
%LPD*%
G75*
G36*
G01X754200Y500000D02*
Y754200D01*
X500000D01*
Y3365600D01*
G03Y3618400I0J126400D01*
G01Y3632300D01*
G03Y3859700I0J113700D01*
G01Y3873600D01*
G03Y4126400I0J126400D01*
G01Y6245800D01*
X754200D01*
Y6500000D01*
X9245800D01*
Y6245800D01*
X9500000D01*
Y3867700D01*
G03Y3640300I0J-113700D01*
G01Y3626400D01*
G03X9398400Y3575200I0J-126406D01*
G01X9342300D01*
X9334800Y3567700D01*
X8481200D01*
X8475200Y3573700D01*
Y4106500D01*
G03X8290500Y4291200I-75200J109500D01*
G01X7430900D01*
X7326700Y4187000D01*
X7324200Y4187400D01*
G03X7190500Y4108500I-16148J-125367D01*
G02X7171500I-9500J3796D01*
G03X7072000Y4187100I-117522J-46493D01*
G01X7070400Y4187300D01*
X6903000Y4354700D01*
X5705000D01*
X5554000Y4203700D01*
X5403000Y4354700D01*
X4205000D01*
X4054000Y4203700D01*
X3919000Y4338700D01*
X2689000D01*
X2537600Y4187300D01*
X2536000Y4187100D01*
G03X2436500Y4108500I18022J-125093D01*
G02X2417500I-9500J3796D01*
G03Y4015500I-117500J-46500D01*
G02X2436500I9500J-3796D01*
G03X2671500I117500J46500D01*
G02X2690500I9500J-3796D01*
G03X2925500I117500J46500D01*
G02X2944500I9500J-3796D01*
G03X3172600Y4123200I117550J46437D01*
G02X3181500Y4138300I8939J4904D01*
G01X3680500D01*
G02X3689400Y4123200I-39J-10196D01*
G03X3917500Y4015500I110550J-61263D01*
G02X3936500I9500J-3796D01*
G03X4171500I117500J46500D01*
G02X4190500I9500J-3796D01*
G03X4324200Y3936600I117552J46467D01*
G01X4326700Y3937000D01*
X4465400Y3798300D01*
X5620400D01*
X5732800Y3685900D01*
Y3401600D01*
G03X5690500Y3346500I75244J-101551D01*
G02X5671500I-9500J3796D01*
G03X5445400Y3364600I-117499J-46528D01*
G02X5426400Y3369800I-8790J5194D01*
G01Y3376200D01*
G03X5376200Y3426400I-50200J0D01*
G01X5223800D01*
G03X5173600Y3376200I0J-50200D01*
G01Y3223800D01*
G03X5223800Y3173600I50200J0D01*
G01X5376200D01*
G03X5426400Y3223800I0J50200D01*
G01Y3230200D01*
G02X5445400Y3235400I10210J6D01*
G03X5671500Y3253500I108601J64628D01*
G02X5690500I9500J-3796D01*
G03X5925500I117500J46500D01*
G02X5944500I9500J-3796D01*
G03X5961800Y3222900I117612J46303D01*
G01Y2738000D01*
X5924000Y2700200D01*
X5413500D01*
G03X5408200Y2705500I-105500J-100200D01*
G01Y2812300D01*
X5199300Y3021200D01*
X4703500D01*
X4662200Y3062500D01*
Y3222900D01*
G03X4580000Y3425100I-100186J77080D01*
G01X4578400Y3425300D01*
X4451900Y3551800D01*
X3172100D01*
X3045600Y3425300D01*
X3044000Y3425100D01*
G03X2944500Y3346500I18022J-125093D01*
G02X2925500I-9500J3796D01*
G03X2883200Y3401600I-117544J-46451D01*
G01Y3763500D01*
X2761500Y3885200D01*
X1506500D01*
G03X1272700Y3856800I-109493J-75180D01*
G02X1253800Y3856400I-9530J3587D01*
G03Y3763600I-110800J-46400D01*
G02X1272700Y3763200I9370J-3987D01*
G03X1506500Y3734800I124307J46780D01*
G01X2699300D01*
X2732800Y3701300D01*
Y3401600D01*
G03X2690500Y3346500I75244J-101551D01*
G02X2671500I-9500J3796D01*
G03X2445400Y3364600I-117499J-46528D01*
G02X2426400Y3369800I-8790J5194D01*
G01Y3376200D01*
G03X2376200Y3426400I-50200J0D01*
G01X2223800D01*
G03X2173600Y3376200I0J-50200D01*
G01Y3223800D01*
G03X2223800Y3173600I50200J0D01*
G01X2376200D01*
G03X2426400Y3223800I0J50200D01*
G01Y3230200D01*
G02X2445400Y3235400I10210J6D01*
G03X2671500Y3253500I108601J64628D01*
G02X2690500I9500J-3796D01*
G03X2925500I117500J46500D01*
G02X2944500I9500J-3796D01*
G03X3187100Y3282000I117508J46530D01*
G01X3187300Y3283600D01*
X3255100Y3351400D01*
X3673600D01*
Y3223800D01*
G03X3723800Y3173600I50200J0D01*
G01X3876200D01*
G03X3926400Y3223800I0J50200D01*
G01Y3230200D01*
G02X3945400Y3235400I10210J6D01*
G03X4171500Y3253500I108601J64628D01*
G02X4190500I9500J-3796D01*
G03X4425500I117500J46500D01*
G02X4444500I9500J-3796D01*
G03X4461800Y3222900I117612J46303D01*
G01Y2979500D01*
X4620500Y2820800D01*
X5116300D01*
X5207800Y2729300D01*
Y2705500D01*
X5206300Y2704000D01*
G03X5189300Y2684200I101446J-104298D01*
G02X5172700I-8300J5870D01*
G03X4948700Y2700400I-118675J-84195D01*
G02X4931500Y2704900I-7337J7079D01*
G03X4895200Y2732800I-36266J-9621D01*
G01X4704800D01*
G03X4667200Y2695200I-50J-37550D01*
G01Y2504800D01*
G03X4704800Y2467200I37550J-50D01*
G01X4895200D01*
G03X4931500Y2495100I34J37521D01*
G02X4948700Y2499600I9863J-2579D01*
G03X4978800Y2475400I105421J100303D01*
G01Y2291100D01*
X4921900Y2234200D01*
X2444100D01*
X2289600Y2388800D01*
X2290000Y2391300D01*
G03X2205800Y2537300I-131012J21723D01*
G02X2205400Y2556200I3587J9530D01*
G03X2270800Y2710900I-46396J110788D01*
G02X2280300Y2724800I9496J3707D01*
G01X2670500D01*
G02X2679700Y2710300I-33J-10189D01*
G03X2753200Y2529700I120290J-56301D01*
G02X2753600Y2510800I-3587J-9530D01*
G03X2846400I46400J-110800D01*
G02X2846800Y2529700I3987J9370D01*
G03X2920300Y2710300I-46790J124299D01*
G02X2929500Y2724800I9233J4311D01*
G01X3268900D01*
X3354600Y2639100D01*
Y2504800D01*
G03X3404800Y2454600I50150J-50D01*
G01X3595200D01*
G03X3645400Y2504800I50J50150D01*
G01Y2513900D01*
X3652900D01*
X3654400Y2512200D01*
G03X3865000Y2527100I99615J87809D01*
G02X3882300Y2526700I8525J-5589D01*
G03X4006400Y2745500I125694J73302D01*
G01X4004200D01*
X3601500Y3148200D01*
X1606500D01*
X1134200Y2675900D01*
G02X1117100Y2680800I-7181J7228D01*
G03X953600Y2543200I-117086J-26813D01*
G02X953200Y2524300I-3987J-9370D01*
G03X1132300Y2388900I46772J-124285D01*
G01X1132500Y2390800D01*
X1689500Y2947800D01*
X3518500D01*
X3721700Y2744600D01*
G02X3717300Y2727600I-7239J-7196D01*
G03X3654400Y2687800I36703J-127609D01*
G01X3652900Y2686100D01*
X3645400D01*
Y2695200D01*
G03X3595200Y2745400I-50150J50D01*
G01X3460900D01*
X3331100Y2875200D01*
X1968900D01*
X1737500Y2643800D01*
G02X1720100Y2651300I-7206J7217D01*
G03X1553600Y2543200I-120088J2689D01*
G02X1553200Y2524300I-3987J-9370D01*
G03X1731000Y2421700I46782J-124288D01*
G01X1730600Y2424200D01*
X2031100Y2724800D01*
X2037700D01*
G02X2047200Y2710900I4J-10193D01*
G03X2112600Y2556200I111796J-43912D01*
G02X2112200Y2537300I-3987J-9370D01*
G03X2180700Y2282000I46790J-124285D01*
G01X2183200Y2282400D01*
X2381900Y2083800D01*
X4984100D01*
X5129200Y2228900D01*
Y2475400D01*
G03X5172700Y2515800I-75198J124587D01*
G02X5189300I8300J-5870D01*
G03X5413500Y2499800I118679J84193D01*
G01X6007000D01*
X6162200Y2655000D01*
Y3222900D01*
G03X6187100Y3282000I-100229J77024D01*
G01X6187300Y3283600D01*
X6296000Y3392300D01*
X6663700D01*
G02X6673800Y3381100I-33J-10184D01*
G03X6673600Y3376200I50017J-4496D01*
G01Y3223800D01*
G03X6723800Y3173600I50200J0D01*
G01X6876200D01*
G03X6926400Y3223800I0J50200D01*
G01Y3376200D01*
G03X6926200Y3381100I-50217J404D01*
G02X6936300Y3392300I10133J1016D01*
G01X6961200D01*
G02X6968800Y3375300I9J-10195D01*
G03X7139200I85200J-75300D01*
G02X7146800Y3392300I7591J6805D01*
G01X7198800D01*
G02X7207000Y3376000I31J-10197D01*
G03X7324200Y3174600I100996J-76029D01*
G01X7326700Y3175000D01*
X7521900Y2979800D01*
X8286100D01*
X8375800Y3069400D01*
X8378300Y3069000D01*
G03X8269000Y3178300I21700J131000D01*
G01X8269400Y3175800D01*
X8223900Y3130200D01*
X7584100D01*
X7558100Y3156200D01*
G02X7565100Y3173600I7212J7206D01*
G03X7580000Y3425100I-3049J126372D01*
G01X7578400Y3425300D01*
X7411000Y3592700D01*
X6213000D01*
X6045600Y3425300D01*
X6044000Y3425100D01*
G03X5944500Y3346500I18022J-125093D01*
G02X5925500I-9500J3796D01*
G03X5883200Y3401600I-117544J-46451D01*
G01Y3748100D01*
X5682600Y3948700D01*
X5643600D01*
G02X5636900Y3966600I-7J10201D01*
G03X5671500Y4015500I-82931J95370D01*
G02X5690500I9500J-3796D01*
G03X5925500I117500J46500D01*
G02X5944500I9500J-3796D01*
G03X6163000Y4138000I117535J46472D01*
G02X6171200Y4154300I8169J6103D01*
G01X6690800D01*
G02X6699000Y4138000I31J-10197D01*
G03X6917500Y4015500I100965J-76028D01*
G02X6936500I9500J-3796D01*
G03X7171500I117500J46500D01*
G02X7190500I9500J-3796D01*
G03X7425500I117500J46500D01*
G02X7444500I9500J-3796D01*
G03X7671300Y4125500I117544J46456D01*
G02X7680100Y4140800I8824J5105D01*
G01X8290500D01*
G03X8324800Y4106500I109500J75200D01*
G01Y3511500D01*
X8419000Y3417300D01*
X9397000D01*
X9400700Y3421000D01*
X9404500Y3417200D01*
X9404600Y3417100D01*
G03X9500000Y3373600I95400J82861D01*
G01Y754200D01*
X9245800D01*
Y500000D01*
X754200D01*
G37*
%LPC*%
G75*
G36*
G01X7129500Y5830300D02*
X6777000D01*
G02Y5980700I-109500J75200D01*
G01X7129500D01*
G02Y5830300I109500J-75200D01*
G37*
G36*
G01X5059100Y5975200D02*
X5290500D01*
G02Y5824800I109500J-75200D01*
G01X4995000D01*
G02X4999000Y5980700I-105487J80708D01*
G01X5053600D01*
X5059100Y5975200D01*
G37*
G36*
G01X2075200Y5806500D02*
Y5618900D01*
X1981100Y5524800D01*
X1501600D01*
G02X1383800Y5474600I-101633J75177D01*
G01X1381300Y5475000D01*
X1271000Y5364700D01*
X1271400Y5362200D01*
G02X1162200Y5471400I-125400J-16200D01*
G01X1164700Y5471000D01*
X1275000Y5581300D01*
X1274600Y5583800D01*
G02X1501600Y5675200I125370J16220D01*
G01X1918900D01*
X1924800Y5681100D01*
Y5806500D01*
G02X2075200I75200J109500D01*
G37*
G36*
G01X2572100Y5167200D02*
X2675200Y5064100D01*
Y5009500D01*
G02X2511900Y4999400I-75191J-109487D01*
G03X2512400Y5014300I-6710J7684D01*
G01X2509900Y5016800D01*
X2095300D01*
G03X2088500Y4999000I3J-10200D01*
G02X1911500I-88500J-99000D01*
G03X1904700Y5016800I-6803J7600D01*
G01X1501600D01*
G02Y5167200I-101600J75200D01*
G01X2572100D01*
G37*
G36*
G01X3707200Y5020100D02*
X3842400Y5155200D01*
X4730100D01*
X4865300Y5020100D01*
X4867800Y5020500D01*
G02X4758500Y4911200I21700J-131000D01*
G01X4758900Y4913700D01*
X4667900Y5004800D01*
X4478500D01*
G03X4471500Y4987100I-63J-10209D01*
G02X4291500I-90000J-97600D01*
G03X4284500Y5004800I-6937J7491D01*
G01X4034000D01*
G03X4027000Y4987100I-63J-10209D01*
G02X3819100Y4828500I-89940J-97665D01*
G03X3800900I-9100J-4720D01*
G02X3704700Y5020500I-117928J61013D01*
G01X3707200Y5020100D01*
G37*
G36*
G01X5424200Y5014600D02*
X5507400Y5097700D01*
X7137100D01*
X7214800Y5020100D01*
X7217300Y5020500D01*
G02X7108000Y4911200I21700J-131000D01*
G01X7108400Y4913700D01*
X7074900Y4947300D01*
X6802300D01*
G03X6792700Y4933700I25J-10206D01*
G02X6558000Y4814300I-125223J-44224D01*
G01X6205500D01*
G02X5970800Y4933700I-109477J75176D01*
G03X5961200Y4947300I-9625J3394D01*
G01X5569600D01*
X5530600Y4908200D01*
X5531000Y4905700D01*
G02X5421700Y5015000I-131000J-21700D01*
G01X5424200Y5014600D01*
G37*
G54D18*
X2600000Y5916000D03*
X4381500Y5905500D03*
X6096000D03*
G54D19*
X3200000Y4900000D03*
Y5916000D03*
%LPD*%
G75*
G54D10*
X500000Y500000D03*
Y6500000D03*
X9500000Y500000D03*
Y6500000D03*
G54D11*
X500000Y3492000D03*
Y3746000D03*
Y4000000D03*
X1400000Y5092000D03*
X1146000Y5346000D03*
X1400000Y5600000D03*
X2300000Y4062000D03*
X3062000Y3300000D03*
X2808000D03*
X2554000D03*
X3062000Y4062000D03*
X2808000D03*
X2554000D03*
X3800000D03*
X4562000Y3300000D03*
X4308000D03*
X4054000D03*
X4562000Y4062000D03*
X4308000D03*
X4054000D03*
X5300000D03*
X6062000Y3300000D03*
X5808000D03*
X5554000D03*
X6062000Y4062000D03*
X5808000D03*
X5554000D03*
X6800000D03*
X7562000Y3300000D03*
X7308000D03*
X7054000D03*
X7562000Y4062000D03*
X7308000D03*
X7054000D03*
X9500000Y3754000D03*
Y3500000D03*
G54D12*
X1000000Y2654000D03*
Y2400000D03*
X1143000Y3810000D03*
X1397000D03*
X2159000Y2413000D03*
Y2667000D03*
X1600000Y2654000D03*
Y2400000D03*
X2000000Y4900000D03*
Y5916000D03*
X2800000Y2654000D03*
Y2400000D03*
X2600000Y4900000D03*
Y5916000D03*
X3683000Y4889500D03*
X3200000Y4900000D03*
Y5916000D03*
X3937000Y4889500D03*
X4381500D03*
Y5905500D03*
X4889500Y4889500D03*
Y5905500D03*
X6096000Y4889500D03*
X5400000Y4884000D03*
X6096000Y5905500D03*
X5400000Y5900000D03*
X6667500Y4889500D03*
Y5905500D03*
X7239000Y4889500D03*
Y5905500D03*
X8400000Y3200000D03*
Y4216000D03*
G54D13*
X2300000Y3300000D03*
X3800000D03*
X5300000D03*
X6800000D03*
G54D14*
X3500000Y2600000D03*
X4800000D03*
G54D15*
X3754000D03*
X4008000D03*
X5054000D03*
X5308000D03*
G54D16*
G01X1000000Y2400000D02*
X1648000Y3048000D01*
X3560000D01*
X4008000Y2600000D01*
G01X4054000Y4062000D02*
X3877500Y4238500D01*
X2730500D01*
X2554000Y4062000D01*
G01X3754000Y2600000D02*
Y2429200D01*
G01D02*
X3833700Y2349500D01*
X4549500D01*
G01X3062000Y3300000D02*
X3213600Y3451600D01*
X4410400D01*
X4562000Y3300000D01*
G01X5554000Y4062000D02*
X5361500Y4254500D01*
X4246500D01*
X4054000Y4062000D01*
G01X4549500Y2349500D02*
X4800000Y2600000D01*
G01X5308000D02*
Y2770800D01*
X5157800Y2921000D01*
X4662000D01*
X4562000Y3021000D01*
Y3300000D01*
G01X5308000Y2600000D02*
X5965500D01*
X6062000Y2696500D01*
Y3300000D01*
G01D02*
X6254500Y3492500D01*
X7369500D01*
X7562000Y3300000D01*
G01X7054000Y4062000D02*
X6861500Y4254500D01*
X5746500D01*
X5554000Y4062000D01*
G54D17*
G01X500000Y3627200D02*
Y3746000D01*
G01D02*
X618800D01*
G01X500000D02*
Y3864800D01*
G01X874800Y2654000D02*
X1000000D01*
G01D02*
Y2779200D01*
G01X1143000Y3684800D02*
Y3810000D01*
G01X1017800D02*
X1143000D01*
G01D02*
Y3935200D01*
G01X1397000Y3810000D02*
X2730400D01*
X2808000Y3732400D01*
Y3300000D01*
G01X1400000Y5092000D02*
X2541000D01*
X2600000Y5033000D01*
Y4900000D01*
G01X1400000Y5600000D02*
X1950000D01*
X2000000Y5650000D01*
Y5916000D01*
G01X1146000Y5346000D02*
X1400000Y5600000D01*
G01X2159000Y2667000D02*
X2284200D01*
G01X2033800D02*
X2159000D01*
G01X1600000Y2654000D02*
X1725200D01*
G01X1474800D02*
X1600000D01*
G01D02*
Y2779200D01*
G01X2159000Y2413000D02*
X2413000Y2159000D01*
X4953000D01*
X5054000Y2260000D01*
Y2600000D01*
G01X1600000Y2400000D02*
X2000000Y2800000D01*
X3300000D01*
X3500000Y2600000D01*
G01X2800000Y2400000D02*
X2925200D01*
G01X2674800D02*
X2800000D01*
G01Y2274800D02*
Y2400000D01*
G01X2600000Y5916000D02*
X2725200D01*
G01X2474800D02*
X2600000D01*
G01D02*
Y6041200D01*
G01Y5790800D02*
Y5916000D01*
G01X4889500Y4889500D02*
X4699000Y5080000D01*
X3873500D01*
X3683000Y4889500D01*
G01X5808000Y3300000D02*
Y3717000D01*
X5651500Y3873500D01*
X4496500D01*
X4308000Y4062000D01*
G01X4381500Y5905500D02*
X4506700D01*
G01X4256300D02*
X4381500D01*
G01D02*
Y6030700D01*
G01Y5780300D02*
Y5905500D01*
G01X4662100Y2600000D02*
X4800000D01*
G01D02*
Y2737900D01*
G01Y2462100D02*
Y2600000D01*
G01X5400000Y5900000D02*
X5028000D01*
X5022500Y5905500D01*
X4889500D01*
G01X5400000Y4884000D02*
X5538500Y5022500D01*
X7106000D01*
X7239000Y4889500D01*
G01X5970800Y5905500D02*
X6096000D01*
G01Y4889500D02*
X6667500D01*
G01X6096000Y5905500D02*
X6221200D01*
G01X6096000D02*
Y6030700D01*
G01Y5780300D02*
Y5905500D01*
G01X6667500D02*
X7239000D01*
G01X7054000Y3300000D02*
X7172800D01*
G01X6935200D02*
X7054000D01*
G01Y3181200D02*
Y3300000D01*
G01X7308000D02*
X7553000Y3055000D01*
X8255000D01*
X8400000Y3200000D01*
G01Y4216000D02*
X7462000D01*
X7308000Y4062000D01*
G01X9500000Y3500000D02*
X9373400D01*
X9365900Y3492500D01*
X8450100D01*
X8400000Y3542600D01*
Y4216000D01*
G01X9500000Y3635200D02*
Y3754000D01*
G01X9381200D02*
X9500000D01*
G01D02*
Y3872800D01*
M02*
